<svg xmlns="http://www.w3.org/2000/svg" width="48" height="61" viewBox="0 0 48 61"><defs><clipPath id="sjdqa"><path d="M.458 30.455c0 16.702 13.541 30.243 30.243 30.243V47.437c-.067.006-.14.006-.207.006-9.38 0-16.988-7.607-16.988-16.988s7.608-16.987 16.988-16.987c.067 0 .14 0 .207.006V.212C13.999.212.458 13.754.458 30.455z"/></clipPath><clipPath id="sjdqb"><path d="M.458 30.455c0 16.702 13.541 30.243 30.243 30.243V47.437c-.067.006-.14.006-.207.006-9.38 0-16.988-7.607-16.988-16.988s7.608-16.987 16.988-16.987c.067 0 .14 0 .207.006V.212C13.999.212.458 13.754.458 30.455z"/></clipPath><clipPath id="sjdqc"><path d="M.458 30.455c0 16.702 13.541 30.243 30.243 30.243V47.437c-.067.006-.14.006-.207.006-9.38 0-16.988-7.607-16.988-16.988s7.608-16.987 16.988-16.987c.067 0 .14 0 .207.006V.212C13.999.212.458 13.754.458 30.455z"/></clipPath><clipPath id="sjdqd"><path d="M23.244 50.42c-2.197 2.143-3.817 4.864-5.471 7.383a30.097 30.097 0 0 0 11.761 2.873c.402-.28.792-.574 1.167-.881V47.437c-.067.006-.14.006-.207.006-.988 0-1.957-.084-2.899-.246-1.62.914-3.126 2.027-4.351 3.223z"/></clipPath><clipPath id="sjdqe"><path d="M23.244 50.42c-2.197 2.143-3.817 4.864-5.471 7.383a30.097 30.097 0 0 0 11.761 2.873c.402-.28.792-.574 1.167-.881V47.437c-.067.006-.14.006-.207.006-.988 0-1.957-.084-2.899-.246-1.62.914-3.126 2.027-4.351 3.223z"/></clipPath><clipPath id="sjdqf"><path d="M23.244 50.42c-2.197 2.143-3.817 4.864-5.471 7.383a30.097 30.097 0 0 0 11.761 2.873c.402-.28.792-.574 1.167-.881V47.437c-.067.006-.14.006-.207.006-.988 0-1.957-.084-2.899-.246-1.62.914-3.126 2.027-4.351 3.223z"/></clipPath><clipPath id="sjdqg"><path d="M23.244 50.42c-2.197 2.143-3.817 4.864-5.471 7.383a30.097 30.097 0 0 0 11.761 2.873c.402-.28.792-.574 1.167-.881V47.437c-.067.006-.14.006-.207.006-.988 0-1.957-.084-2.899-.246-1.62.914-3.126 2.027-4.351 3.223z"/></clipPath><clipPath id="sjdqh"><path d="M.458 30.455c0 16.702 13.541 30.243 30.243 30.243V47.437c-.067.006-.14.006-.207.006-9.38 0-16.988-7.607-16.988-16.988s7.608-16.987 16.988-16.987c.067 0 .14 0 .207.006V.212C13.999.212.458 13.754.458 30.455z"/></clipPath><clipPath id="sjdqi"><path d="M2.513 19.476c1.623.328 3.213.803 4.749 1.454 2.562 1.085 4.874 2.609 7.058 4.315a16.964 16.964 0 0 1 3.647-6.263c-4.149-1.464-9.269-2.332-13.91-2.846a29.943 29.943 0 0 0-1.544 3.34z"/></clipPath><clipPath id="sjdqj"><path d="M.458 30.455c0 16.702 13.541 30.243 30.243 30.243V47.437c-.067.006-.14.006-.207.006-9.38 0-16.988-7.607-16.988-16.988s7.608-16.987 16.988-16.987c.067 0 .14 0 .207.006V.212C13.999.212.458 13.754.458 30.455z"/></clipPath><clipPath id="sjdqk"><path d="M.458 30.455c0 2.961.426 5.823 1.219 8.528 1.57.398 3.297.78 5.211 1.144 1.614.307 6.252.472 7.781 1.434 1.002.631 2.381.796 3.722.814a16.933 16.933 0 0 1-4.885-11.92c0-.919.073-1.821.213-2.7-3.049-2.614-6.367-4.818-10.566-5.841a28.555 28.555 0 0 0-1.381-.301 30.233 30.233 0 0 0-1.314 8.842z"/></clipPath><clipPath id="sjdql"><path d="M.458 30.455c0 2.961.426 5.823 1.219 8.528 1.57.398 3.297.78 5.211 1.144 1.614.307 6.252.472 7.781 1.434 1.002.631 2.381.796 3.722.814a16.933 16.933 0 0 1-4.885-11.92c0-.919.073-1.821.213-2.7-3.049-2.614-6.367-4.818-10.566-5.841a28.555 28.555 0 0 0-1.381-.301 30.233 30.233 0 0 0-1.314 8.842z"/></clipPath><clipPath id="sjdqm"><path d="M.458 30.455c0 2.961.426 5.823 1.219 8.528 1.57.398 3.297.78 5.211 1.144 1.614.307 6.252.472 7.781 1.434 1.002.631 2.381.796 3.722.814a16.933 16.933 0 0 1-4.885-11.92c0-.919.073-1.821.213-2.7-3.049-2.614-6.367-4.818-10.566-5.841a28.555 28.555 0 0 0-1.381-.301 30.233 30.233 0 0 0-1.314 8.842z"/></clipPath><clipPath id="sjdqn"><path d="M.458 30.455c0 2.961.426 5.823 1.219 8.528 1.57.398 3.297.78 5.211 1.144 1.614.307 6.252.472 7.781 1.434 1.002.631 2.381.796 3.722.814a16.933 16.933 0 0 1-4.885-11.92c0-.919.073-1.821.213-2.7-3.049-2.614-6.367-4.818-10.566-5.841a28.555 28.555 0 0 0-1.381-.301 30.233 30.233 0 0 0-1.314 8.842z"/></clipPath><clipPath id="sjdqo"><path d="M.458 30.455c0 2.961.426 5.823 1.219 8.528 1.57.398 3.297.78 5.211 1.144 1.614.307 6.252.472 7.781 1.434 1.002.631 2.381.796 3.722.814a16.933 16.933 0 0 1-4.885-11.92c0-.919.073-1.821.213-2.7-3.049-2.614-6.367-4.818-10.566-5.841a28.555 28.555 0 0 0-1.381-.301 30.233 30.233 0 0 0-1.314 8.842z"/></clipPath><clipPath id="sjdqp"><path d="M.458 30.455c0 2.961.426 5.823 1.219 8.528 1.57.398 3.297.78 5.211 1.144 1.614.307 6.252.472 7.781 1.434 1.002.631 2.381.796 3.722.814a16.933 16.933 0 0 1-4.885-11.92c0-.919.073-1.821.213-2.7-3.049-2.614-6.367-4.818-10.566-5.841a28.555 28.555 0 0 0-1.381-.301 30.233 30.233 0 0 0-1.314 8.842z"/></clipPath><clipPath id="sjdqq"><path d="M.458 30.455c0 2.961.426 5.823 1.219 8.528 1.57.398 3.297.78 5.211 1.144 1.614.307 6.252.472 7.781 1.434 1.002.631 2.381.796 3.722.814a16.933 16.933 0 0 1-4.885-11.92c0-.919.073-1.821.213-2.7-3.049-2.614-6.367-4.818-10.566-5.841a28.555 28.555 0 0 0-1.381-.301 30.233 30.233 0 0 0-1.314 8.842z"/></clipPath><clipPath id="sjdqr"><path d="M.458 30.455c0 2.961.426 5.823 1.219 8.528 1.57.398 3.297.78 5.211 1.144 1.614.307 6.252.472 7.781 1.434 1.002.631 2.381.796 3.722.814a16.933 16.933 0 0 1-4.885-11.92c0-.919.073-1.821.213-2.7-3.049-2.614-6.367-4.818-10.566-5.841a28.555 28.555 0 0 0-1.381-.301 30.233 30.233 0 0 0-1.314 8.842z"/></clipPath><clipPath id="sjdqs"><path d="M.458 30.455c0 16.702 13.541 30.243 30.243 30.243V47.437c-.067.006-.14.006-.207.006-9.38 0-16.988-7.607-16.988-16.988s7.608-16.987 16.988-16.987c.067 0 .14 0 .207.006V.212C13.999.212.458 13.754.458 30.455z"/></clipPath><clipPath id="sjdqt"><path d="M18.278 2.874c1.045 4.575 3.159 8.637 5.471 11.986a16.886 16.886 0 0 1 5.599-1.354 60.401 60.401 0 0 1-.056-3.009c.022-3.451.349-6.908 1.066-10.283a30.116 30.116 0 0 0-12.08 2.66z"/></clipPath><clipPath id="sjdqu"><path d="M18.278 2.874c1.045 4.575 3.159 8.637 5.471 11.986a16.886 16.886 0 0 1 5.599-1.354 60.401 60.401 0 0 1-.056-3.009c.022-3.451.349-6.908 1.066-10.283a30.116 30.116 0 0 0-12.08 2.66z"/></clipPath><clipPath id="sjdqv"><path d="M18.278 2.874c1.045 4.575 3.159 8.637 5.471 11.986a16.886 16.886 0 0 1 5.599-1.354 60.401 60.401 0 0 1-.056-3.009c.022-3.451.349-6.908 1.066-10.283a30.116 30.116 0 0 0-12.08 2.66z"/></clipPath><clipPath id="sjdqw"><path d="M18.278 2.874c1.045 4.575 3.159 8.637 5.471 11.986a16.886 16.886 0 0 1 5.599-1.354 60.401 60.401 0 0 1-.056-3.009c.022-3.451.349-6.908 1.066-10.283a30.116 30.116 0 0 0-12.08 2.66z"/></clipPath></defs><g><g><path fill="#fff" d="M30.494 21.134c.067 0 .14 0 .207.007V39.77c-.067.007-.14.007-.207.007a9.322 9.322 0 0 1 0-18.642z"/></g><g><path fill="#fff" d="M47.462 29.895c-.293-9.054-7.66-16.322-16.762-16.422v7.668a9.314 9.314 0 0 1 9.115 9.314A9.313 9.313 0 0 1 30.7 39.77v7.668a16.842 16.842 0 0 0 9.581-3.1v2.006c0 .547.447.994.994.994h5.234a.996.996 0 0 0 .993-.994V30.155a.81.81 0 0 0-.04-.26z"/></g><g><path fill="#fff" d="M30.7.212v13.261c-.066-.006-.14-.006-.206-.006-9.381 0-16.988 7.607-16.988 16.988 0 9.382 7.607 16.989 16.988 16.989.067 0 .14 0 .207-.008V60.7C14 60.699.458 47.157.458 30.456.458 13.754 14 .213 30.7.213z"/></g><g/><g clip-path="url(#sjdqa)"><path fill="#fff" d="M30.7.212v13.261c-.066-.006-.14-.006-.206-.006-9.381 0-16.988 7.607-16.988 16.988 0 9.382 7.607 16.989 16.988 16.989.067 0 .14 0 .207-.008V60.7C14 60.699.458 47.157.458 30.456.458 13.754 14 .213 30.7.213z"/></g><g/><g/><g clip-path="url(#sjdqb)"><path fill="#fff" d="M27.296 22.035a67.11 67.11 0 0 0-.744-.825c-3.939-4.284-8.81-11.036-10.295-19.316C9.303 4.197 3.197 8.378-1.47 13.844c6.11.386 14.826 1.366 21.135 3.858 3.202 1.264 5.655 2.766 7.632 4.333z"/></g><g/><g clip-path="url(#sjdqc)"><path fill="#fff" d="M1.64 50.71c1.686.471 2.351-.133 3.77-.986 4.58-2.755 10.392 1.512 15.03-1.41.976-.617 1.841-1.525 2.647-2.346.427-.436 1.027-1.305 1.68-1.4.001 0 .001 0 0 0a31.721 31.721 0 0 1-7.716.093c-6.969-.769-13.482-3.816-20.339-5.284-2.603-.558-5.475-.844-7.789.47l-.002.1c0 4.29.673 8.42 1.913 12.295a24.997 24.997 0 0 1 2.98-1.136c2.473-.752 5.298-1.102 7.825-.396z"/></g><g/><g/><g/><g/><g/><g/><g/><g clip-path="url(#sjdqd)"><path fill="#fff" d="M18.595 57.286s10.691 6.643 23.201-4.581"/></g><g/><g clip-path="url(#sjdqe)"><path fill="#fff" d="M18.595 53.468s10.691 6.643 23.201-4.58"/></g><g/><g clip-path="url(#sjdqf)"><path fill="#fff" d="M18.595 49.65s10.691 6.644 23.201-4.58"/></g><g/><g clip-path="url(#sjdqg)"><path fill="#fff" d="M18.595 45.833s10.691 6.643 23.201-4.581"/></g><g/><g/><g/><g/><g/><g/><g/><g clip-path="url(#sjdqh)"><path fill="#fff" d="M7.263 20.93c4.444 1.882 8.136 5.084 11.71 8.264 3.432 3.053 6.97 7.523 11.856 8.006 1.819.18 4.177-.069 4.064-2.39-.075-1.52-1.172-3.092-1.946-4.234a27.201 27.201 0 0 0-1.654-2.224c-3.268-3.9-7.522-7.1-12.28-8.98-6.475-2.557-15.86-3.473-21.877-3.8a40.081 40.081 0 0 0-2.29 3.336c4.259-.155 8.51.367 12.417 2.022z"/></g><g/><g clip-path="url(#sjdqi)"><path fill="#fff" d="M7.263 20.93c4.444 1.882 8.136 5.084 11.71 8.264 3.432 3.053 6.97 7.523 11.856 8.006 1.819.18 4.177-.069 4.064-2.39-.075-1.52-1.172-3.092-1.946-4.234a27.201 27.201 0 0 0-1.654-2.224c-3.268-3.9-7.522-7.1-12.28-8.98-6.475-2.557-15.86-3.473-21.877-3.8a40.081 40.081 0 0 0-2.29 3.336c4.259-.155 8.51.367 12.417 2.022z"/></g><g/><g clip-path="url(#sjdqj)"><path fill="#fff" d="M6.888 40.127c1.614.307 6.251.472 7.78 1.434 1.632 1.027 4.261.82 6.102.753 1.934-.07 4.29-.176 6.113-.887 1.183-.46 2.381-.95 3.418-1.444-.1-.016-.203-.023-.302-.042-1.294-.239-2.503-.709-3.613-1.29a19.787 19.787 0 0 1-3.059-2.05C16.751 31.195 11.84 24.03 3.152 21.913c-3.116-.759-6.346-.994-9.554-.824a40.114 40.114 0 0 0-1.575 3.325c4.245 1.04-4.058 9.073-.16 11.038 3.523 1.775 8.013 3.338 15.025 4.674z"/></g><g/><g/><g clip-path="url(#sjdqk)"><path fill="#fff" d="M13.248 24.028s-5.386 11.875 7.626 23.33"/></g><g/><g clip-path="url(#sjdql)"><path fill="#fff" d="M17.13 23.537s-5.386 11.875 7.626 23.331"/></g><g/><g/><g/><g clip-path="url(#sjdqm)"><path fill="#fff" d="M-7.482 29.29c.901-.454 6.667-7.174 20.866-6.145"/></g><g/><g clip-path="url(#sjdqn)"><path fill="#fff" d="M-6.377 33.43c.699-.402 5.915-7.33 18.96-7.24"/></g><g/><g clip-path="url(#sjdqo)"><path fill="#fff" d="M-5.745 38.234c.498-.344 4.969-7.56 16.782-8.588"/></g><g/><g clip-path="url(#sjdqp)"><path fill="#fff" d="M-3.078 41.703c.332-.23 4.644-7.33 15.26-8.408"/></g><g/><g clip-path="url(#sjdqq)"><path fill="#fff" d="M-.41 45.172c.166-.115 4.318-7.1 13.737-8.228"/></g><g/><g clip-path="url(#sjdqr)"><path fill="#fff" d="M2.257 48.64s3.992-6.868 12.215-8.047"/></g><g/><g clip-path="url(#sjdqs)"><path fill="#fff" d="M29.324 21.57c.293.33.833.076.776-.362-.22-1.71-.3-2.242-.433-3.473a64.576 64.576 0 0 1-.375-7.238c.022-3.546.368-7.1 1.126-10.563a39.53 39.53 0 0 0-12.441 1.433c1.362 7.95 6.075 14.483 9.883 18.625.503.547.98 1.037 1.464 1.579z"/></g><g/><g clip-path="url(#sjdqt)"><path fill="#fff" d="M29.324 21.57c.293.33.833.076.776-.362-.22-1.71-.3-2.242-.433-3.473a64.576 64.576 0 0 1-.375-7.238c.022-3.546.368-7.1 1.126-10.563a39.53 39.53 0 0 0-12.441 1.433c1.362 7.95 6.075 14.483 9.883 18.625.503.547.98 1.037 1.464 1.579z"/></g><g/><g clip-path="url(#sjdqu)"><path fill="#fff" d="M28.273-.237s-8.745 9.082-.556 23.802"/></g><g/><g clip-path="url(#sjdqv)"><path fill="#fff" d="M31.974.585s-8.745 9.082-.556 23.802"/></g><g/><g/><g/><g clip-path="url(#sjdqw)"><path fill="#fff" d="M23.354 10.056c-.9-.177-10.967-.003-20.631-8.71"/></g><g/><g/><g/><g/><g/></g></svg>