<svg xmlns="http://www.w3.org/2000/svg" xmlns:xlink="http://www.w3.org/1999/xlink" viewBox="0 0 477.96 206.81"><defs><style>.cls-1{fill:#fff;}.cls-2{isolation:isolate;}.cls-3{mix-blend-mode:multiply;opacity:1;}.cls-4{clip-path:url(#clip-path);}.cls-5{clip-path:url(#clip-path-2);}.cls-6{clip-path:url(#clip-path-3);}.cls-7{clip-path:url(#clip-path-4);}.cls-8{clip-path:url(#clip-path-5);}.cls-9{clip-path:url(#clip-path-6);}.cls-10{clip-path:url(#clip-path-7);}</style><clipPath id="clip-path"><path class="cls-1" d="M99.42,7.21V49.39c-.21,0-.44,0-.65,0a54,54,0,1,0,0,108.07c.21,0,.44,0,.65,0v42.17a96.19,96.19,0,0,1,0-192.38Z"/></clipPath><clipPath id="clip-path-2"><path class="cls-1" d="M89.22,203.49c11.12-5.93,19.89-14.6,25.2-26a45,45,0,0,0,4.33-17.43c.6-9.47-5.07-11.84-13.38-9.84-10.64,2.57-21.92,9.1-29.66,16.65-7.39,7.21-12.72,16.46-18.3,24.84a116.77,116.77,0,0,1-27.68,29.48,70.52,70.52,0,0,1-18,9.75l-.16.05a127,127,0,0,0,20.6,14.25c5.9-6,12-11.69,18.49-17.14C62.72,218,75.45,210.83,89.22,203.49Z"/></clipPath><clipPath id="clip-path-3"><path class="cls-1" d="M24.88,73.11c14.13,6,25.87,16.17,37.24,26.28C73,109.1,84.29,123.32,99.83,124.86c5.79.57,13.29-.22,12.93-7.6-.24-4.84-3.73-9.84-6.19-13.47a86.34,86.34,0,0,0-5.26-7.07A99.29,99.29,0,0,0,62.25,68.15C41.66,60,11.81,57.11-7.33,56.06a126.92,126.92,0,0,0-7.28,10.62C-1.07,66.19,12.45,67.85,24.88,73.11Z"/></clipPath><clipPath id="clip-path-4"><path class="cls-1" d="M23.69,134.17c5.13,1,19.88,1.5,24.74,4.56,5.19,3.26,13.56,2.61,19.41,2.39,6.15-.22,13.65-.56,19.44-2.82,3.77-1.47,7.58-3,10.87-4.59-.32-.05-.64-.07-1-.13a41.17,41.17,0,0,1-11.49-4.11A63.27,63.27,0,0,1,76,123C55.06,105.76,39.43,83,11.8,76.24a104.77,104.77,0,0,0-30.38-2.62q-2.75,5.14-5,10.57c13.5,3.31-12.91,28.86-.51,35.11C-12.9,125,1.39,129.92,23.69,134.17Z"/></clipPath><clipPath id="clip-path-5"><path class="cls-1" d="M95.05,75.15A1.42,1.42,0,0,0,97.51,74c-.7-5.44-1-7.13-1.37-11a205.77,205.77,0,0,1-1.2-23A161.33,161.33,0,0,1,98.53,6.33C96.71,6.25,94.88,6.2,93,6.2A126,126,0,0,0,59,10.88C63.29,36.17,78.28,57,90.39,70.12,92,71.86,93.51,73.42,95.05,75.15Z"/></clipPath><clipPath id="clip-path-6"><path class="cls-1" d="M8.11,173.88h0c-8.2-2.52-17.15-1.61-25.32,1a74.36,74.36,0,0,0-8.28,3.24A126.83,126.83,0,0,0-14.94,200,55.23,55.23,0,0,0,8.11,173.88Z"/></clipPath><clipPath id="clip-path-7"><path class="cls-1" d="M133.49,229.93a219.46,219.46,0,0,1-9.69-20.82,95.91,95.91,0,0,1-3.82-11.3,62.38,62.38,0,0,1-1.16-6.53.09.09,0,0,0-.16,0,54.7,54.7,0,0,1-4.74,6.39c-3.87,4.43-9.75,8.34-12.89,13.45S97,222.53,96.48,228.42a94.7,94.7,0,0,0,.71,21.87c.12.83,1.26,5.8,2.44,10.52a125.17,125.17,0,0,0,45.22-11l-.12-.15C140.7,243.17,137,236.66,133.49,229.93Z"/></clipPath></defs><g class="cls-2"><g id="Layer_1" data-name="Layer 1"><g class="cls-3"><path class="cls-1" d="M98.77,73.76c.21,0,.44,0,.65,0V133c-.21,0-.44,0-.65,0a29.65,29.65,0,1,1,0-59.29Z"/><path class="cls-1" d="M152.74,101.62A54,54,0,0,0,99.42,49.39V73.78a29.63,29.63,0,0,1,0,59.25v24.39a53.65,53.65,0,0,0,30.48-9.86v6.38a3.17,3.17,0,0,0,3.16,3.16H149.7a3.17,3.17,0,0,0,3.16-3.16V102.45A2.78,2.78,0,0,0,152.74,101.62Z"/><path class="cls-1" d="M99.42,7.21V49.39c-.21,0-.44,0-.65,0a54,54,0,1,0,0,108.07c.21,0,.44,0,.65,0v42.17a96.19,96.19,0,0,1,0-192.38Z"/><g class="cls-4"><path class="cls-1" d="M99.42,7.21V49.39c-.21,0-.44,0-.65,0a54,54,0,1,0,0,108.07c.21,0,.44,0,.65,0v42.17a96.19,96.19,0,0,1,0-192.38Z"/><path class="cls-1" d="M25.31,215.34A108.88,108.88,0,0,0,49.83,186.9c2.94-4.86,6-9,9.77-16.12h0c-10.21,1.86-19.84-4.26-30.07-2.55-9.89,1.66-17.08,9.82-22.62,18.23C2,193.89-3.8,201.9-11.94,204.69A128.4,128.4,0,0,0,6,226c1.16-.36,2.32-.76,3.45-1.21A64,64,0,0,0,25.31,215.34Z"/><path class="cls-1" d="M88.6,76.62c-.82-.91-1.61-1.8-2.37-2.62-12.53-13.63-28-35.1-32.74-61.44a126.61,126.61,0,0,0-56.39,38c19.43,1.23,47.16,4.35,67.22,12.27A94.08,94.08,0,0,1,88.6,76.62Z"/><path class="cls-1" d="M7,167.83c5.37,1.5,7.48-.42,12-3.14,14.57-8.76,33.06,4.81,47.81-4.49,3.11-2,5.86-4.84,8.42-7.46,1.36-1.38,3.27-4.14,5.34-4.45h0a100.75,100.75,0,0,1-24.54.3c-22.17-2.45-42.88-12.14-64.69-16.81-8.28-1.77-17.41-2.68-24.77,1.5,0,.1,0,.21,0,.31a127.88,127.88,0,0,0,6.09,39.11,77.88,77.88,0,0,1,9.47-3.61C-10,166.7-1,165.58,7,167.83Z"/><path class="cls-1" d="M128.52,50.08c4.79,14.36,12.09,25.69,9.4,41.52-.67,4-1.63,11.63.94,15.29,3.21,4.58,11.07,2.52,15.75,2.2,8.31-.57,15.92-2.19,24.37-1.45,14.65,1.28,20.23-8.31,30.43-16.67a10.34,10.34,0,0,1,2.32-1.54,127.09,127.09,0,0,0-84.89-78.62C124.9,24,124.23,37.22,128.52,50.08Z"/><path class="cls-1" d="M103.94,74.81c1,7.46,9.11,25.71,19.39,18.83,3.93-2.63,3.33-10.09,2.56-14.06-.82-4.24-2.47-8.26-3.86-12.35a107.2,107.2,0,0,1-5.4-27.37,133.67,133.67,0,0,1,1.71-31.11,124.57,124.57,0,0,0-14-2C99.48,29,100.89,52.41,103.94,74.81Z"/><path class="cls-1" d="M149.91,155.37c-13.1,4.51-20.85,16.15-20.74,30,.11,14,7.2,27.62,13.35,39.83,2.73,5.36,7.19,14.07,10.75,20.43a127.51,127.51,0,0,0,63.28-84.4c-3.73-.52-7.46-1.38-9.17-1.52C186.25,158,171.5,147.94,149.91,155.37Z"/><path class="cls-1" d="M89.22,203.49c11.12-5.93,19.89-14.6,25.2-26a45,45,0,0,0,4.33-17.43c.6-9.47-5.07-11.84-13.38-9.84-10.64,2.57-21.92,9.1-29.66,16.65-7.39,7.21-12.72,16.46-18.3,24.84a116.77,116.77,0,0,1-27.68,29.48,70.52,70.52,0,0,1-18,9.75l-.16.05a127,127,0,0,0,20.6,14.25c5.9-6,12-11.69,18.49-17.14C62.72,218,75.45,210.83,89.22,203.49Z"/><g class="cls-5"><path class="cls-1" d="M89.22,203.49c11.12-5.93,19.89-14.6,25.2-26a45,45,0,0,0,4.33-17.43c.6-9.47-5.07-11.84-13.38-9.84-10.64,2.57-21.92,9.1-29.66,16.65-7.39,7.21-12.72,16.46-18.3,24.84a116.77,116.77,0,0,1-27.68,29.48,70.52,70.52,0,0,1-18,9.75l-.16.05a127,127,0,0,0,20.6,14.25c5.9-6,12-11.69,18.49-17.14C62.72,218,75.45,210.83,89.22,203.49Z"/><path class="cls-1" d="M60.92,188.74s34,21.13,73.79-14.57"/><path class="cls-1" d="M60.92,176.6s34,21.13,73.79-14.57"/><path class="cls-1" d="M60.92,164.46s34,21.13,73.79-14.57"/><path class="cls-1" d="M60.92,152.31s34,21.13,73.79-14.57"/><path class="cls-1" d="M36.3,252.67c-1.33-2.61-21.61-27.57-19.07-69"/><path class="cls-1" d="M47.19,248.8c-1.07-2.09-20-25-16.53-62.71"/><path class="cls-1" d="M58.07,244.93c-.8-1.56-18.36-22.32-14-56.4"/><path class="cls-1" d="M69,241.06c-.53-1-16.74-19.7-11.43-50.09"/><path class="cls-1" d="M79.85,237.19c-.27-.52-15.12-17.07-8.88-43.78"/><path class="cls-1" d="M90.73,233.33s-13.49-14.46-6.33-37.48"/></g><path class="cls-1" d="M24.88,73.11c14.13,6,25.87,16.17,37.24,26.28C73,109.1,84.29,123.32,99.83,124.86c5.79.57,13.29-.22,12.93-7.6-.24-4.84-3.73-9.84-6.19-13.47a86.34,86.34,0,0,0-5.26-7.07A99.29,99.29,0,0,0,62.25,68.15C41.66,60,11.81,57.11-7.33,56.06a126.92,126.92,0,0,0-7.28,10.62C-1.07,66.19,12.45,67.85,24.88,73.11Z"/><g class="cls-6"><path class="cls-1" d="M24.88,73.11c14.13,6,25.87,16.17,37.24,26.28C73,109.1,84.29,123.32,99.83,124.86c5.79.57,13.29-.22,12.93-7.6-.24-4.84-3.73-9.84-6.19-13.47a86.34,86.34,0,0,0-5.26-7.07A99.29,99.29,0,0,0,62.25,68.15C41.66,60,11.81,57.11-7.33,56.06a126.92,126.92,0,0,0-7.28,10.62C-1.07,66.19,12.45,67.85,24.88,73.11Z"/></g><path class="cls-1" d="M23.69,134.17c5.13,1,19.88,1.5,24.74,4.56,5.19,3.26,13.56,2.61,19.41,2.39,6.15-.22,13.65-.56,19.44-2.82,3.77-1.47,7.58-3,10.87-4.59-.32-.05-.64-.07-1-.13a41.17,41.17,0,0,1-11.49-4.11A63.27,63.27,0,0,1,76,123C55.06,105.76,39.43,83,11.8,76.24a104.77,104.77,0,0,0-30.38-2.62q-2.75,5.14-5,10.57c13.5,3.31-12.91,28.86-.51,35.11C-12.9,125,1.39,129.92,23.69,134.17Z"/><g class="cls-7"><path class="cls-1" d="M25.81,156.47c1.54,5,17.76-20.8,22.62-17.74,5.19,3.26,13.56,2.61,19.41,2.39,6.15-.22,13.65-.56,19.44-2.82,3.77-1.47,7.58-3,10.87-4.59-.32-.05-.64-.07-1-.13a41.17,41.17,0,0,1-11.49-4.11A63.27,63.27,0,0,1,76,123C55.06,105.76,39.43,83,11.8,76.24a104.77,104.77,0,0,0-30.38-2.62q-2.75,5.14-5,10.57c13.5,3.31-46.89,66-34.49,72.28C-46.88,162.12,22.09,144.42,25.81,156.47Z"/><path class="cls-1" d="M43.91,83s-17.13,37.77,24.26,74.21"/><path class="cls-1" d="M56.26,81.4s-17.13,37.77,24.26,74.21"/><path class="cls-1" d="M68.61,79.84s-17.14,37.77,24.25,74.21"/><path class="cls-1" d="M81,78.28s-17.13,37.77,24.26,74.21"/><path class="cls-1" d="M-22,99.7c2.87-1.45,21.21-22.82,66.37-19.55"/><path class="cls-1" d="M-18.51,112.87c2.23-1.28,18.82-23.32,60.31-23"/><path class="cls-1" d="M-16.5,128.14c1.59-1.09,15.81-24,53.38-27.31"/><path class="cls-1" d="M-8,139.18c1-.73,14.77-23.31,48.53-26.74"/><path class="cls-1" d="M.47,150.21A62.18,62.18,0,0,1,44.17,124"/><path class="cls-1" d="M9,161.25s12.69-21.85,38.85-25.6"/></g><path class="cls-1" d="M95.05,75.15A1.42,1.42,0,0,0,97.51,74c-.7-5.44-1-7.13-1.37-11a205.77,205.77,0,0,1-1.2-23A161.33,161.33,0,0,1,98.53,6.33C96.71,6.25,94.88,6.2,93,6.2A126,126,0,0,0,59,10.88C63.29,36.17,78.28,57,90.39,70.12,92,71.86,93.51,73.42,95.05,75.15Z"/><g class="cls-8"><path class="cls-1" d="M95.05,75.15A1.42,1.42,0,0,0,97.51,74c-.7-5.44-1-7.13-1.37-11a205.77,205.77,0,0,1-1.2-23A161.33,161.33,0,0,1,98.53,6.33C96.71,6.25,94.88,6.2,93,6.2A126,126,0,0,0,59,10.88C63.29,36.17,78.28,57,90.39,70.12,92,71.86,93.51,73.42,95.05,75.15Z"/><path class="cls-1" d="M91.7,5.78S63.89,34.67,89.93,81.49"/><path class="cls-1" d="M103.48,8.4s-27.82,28.89-1.77,75.71"/><path class="cls-1" d="M115.25,11s-27.81,28.88-1.77,75.7"/><path class="cls-1" d="M127,13.63s-27.81,28.89-1.76,75.71"/><path class="cls-1" d="M76.06,38.52c-2.87-.56-34.88,0-65.62-27.7"/><path class="cls-1" d="M79.79,27.52c-2.29-.45-31.83.33-59.12-25.8"/><path class="cls-1" d="M83.52,16.52c-1.72-.34-28.78.67-52.63-23.91"/><path class="cls-1" d="M87.25,5.52c-1.15-.23-25.73,1-46.13-22"/></g><path class="cls-1" d="M8.11,173.88h0c-8.2-2.52-17.15-1.61-25.32,1a74.36,74.36,0,0,0-8.28,3.24A126.83,126.83,0,0,0-14.94,200,55.23,55.23,0,0,0,8.11,173.88Z"/><g class="cls-9"><path class="cls-1" d="M8.11,173.88h0c-8.2-2.52-17.15-1.61-25.32,1a74.36,74.36,0,0,0-8.28,3.24A126.83,126.83,0,0,0-14.94,200,55.23,55.23,0,0,0,8.11,173.88Z"/><path class="cls-1" d="M-19.42,139.92s-15.68,38.4,27.06,73.23"/><path class="cls-1" d="M-7.14,137.89s-15.68,38.4,27.06,73.24"/><path class="cls-1" d="M5.14,135.87S-10.54,174.26,32.2,209.1"/><path class="cls-1" d="M17.42,133.84S1.73,172.23,44.47,207.07"/></g><path class="cls-1" d="M133.49,229.93a219.46,219.46,0,0,1-9.69-20.82,95.91,95.91,0,0,1-3.82-11.3,62.38,62.38,0,0,1-1.16-6.53.09.09,0,0,0-.16,0,54.7,54.7,0,0,1-4.74,6.39c-3.87,4.43-9.75,8.34-12.89,13.45S97,222.53,96.48,228.42a94.7,94.7,0,0,0,.71,21.87c.12.83,1.26,5.8,2.44,10.52a125.17,125.17,0,0,0,45.22-11l-.12-.15C140.7,243.17,137,236.66,133.49,229.93Z"/><g class="cls-10"><path class="cls-1" d="M133.49,229.93a219.46,219.46,0,0,1-9.69-20.82,95.91,95.91,0,0,1-3.82-11.3,62.38,62.38,0,0,1-1.16-6.53.09.09,0,0,0-.16,0,54.7,54.7,0,0,1-4.74,6.39c-3.87,4.43-9.75,8.34-12.89,13.45S97,222.53,96.48,228.42a94.7,94.7,0,0,0,.71,21.87c.12.83,1.26,5.8,2.44,10.52a125.17,125.17,0,0,0,45.22-11l-.12-.15C140.7,243.17,137,236.66,133.49,229.93Z"/><path class="cls-1" d="M129.05,253.64c-1-2.75-17.61-30.12-9.57-70.65"/><path class="cls-1" d="M140.3,251.31c-.77-2.21-16.36-27.32-7.9-64.08"/><path class="cls-1" d="M151.55,249c-.58-1.65-15.11-24.5-6.23-57.51"/><path class="cls-1" d="M162.8,246.63c-.38-1.1-13.86-21.69-4.56-50.94"/><path class="cls-1" d="M174.06,244.3c-.2-.55-12.62-18.89-2.9-44.38"/><path class="cls-1" d="M185.31,242s-11.37-16.08-1.23-37.81"/></g><path class="cls-1" d="M99.42,199.59a96.19,96.19,0,0,1,0-192.38Z"/></g><path class="cls-1" d="M238.43,78.79a2.62,2.62,0,0,1-.74,1.48Q231.24,88,220.52,88q-11,0-17.77-7.48-6.65-7.23-6.64-18.26a26.64,26.64,0,0,1,6.5-18.13,21.87,21.87,0,0,1,17.24-7.79q11.39,0,17.84,7a2.19,2.19,0,0,1,.71,1.37c0,.44-.82,2.09-2.44,5a28.79,28.79,0,0,1-3.08,4.81.93.93,0,0,1-.7.28,9.59,9.59,0,0,1-1.76-1.4,18.06,18.06,0,0,0-3.72-2.64,12.68,12.68,0,0,0-5.76-1.4,10,10,0,0,0-8.25,3.86A13.78,13.78,0,0,0,209.84,62a14,14,0,0,0,2.85,9,10,10,0,0,0,8.25,3.93,13.08,13.08,0,0,0,5.8-1.33,18.29,18.29,0,0,0,3.65-2.46,9,9,0,0,1,1.72-1.34,1,1,0,0,1,.7.39c.38.42,1.39,1.88,3.06,4.39A25.8,25.8,0,0,1,238.43,78.79Z"/><path class="cls-1" d="M275.77,69.45q0,8-4.9,13t-12.88,5a17.36,17.36,0,0,1-12.71-4.91,17,17,0,0,1-5-12.65q0-8.15,4.78-13.22T258,51.57q8,0,12.86,5T275.77,69.45Zm-11.52,0a7.56,7.56,0,0,0-1.73-4.9,5.47,5.47,0,0,0-4.46-2.12,5.64,5.64,0,0,0-4.56,2.17,7.85,7.85,0,0,0,0,9.73,5.83,5.83,0,0,0,9.09,0A7.49,7.49,0,0,0,264.25,69.45Z"/><path class="cls-1" d="M336.14,85.43c0,.82-.35,1.28-1.05,1.37s-2.44.14-5.2.14a38.54,38.54,0,0,1-5.34-.21c-.7-.14-1.05-.71-1.05-1.72s0-2.69.1-4.83.11-3.75.11-4.83q0-6.15-.14-8.74-.22-4.19-4-4.18a5.11,5.11,0,0,0-3.29,1.38,4.69,4.69,0,0,0-1.81,3.08q-.13,1.47-.14,8.64c0,1.1,0,2.77.11,5s.1,3.92.1,5c0,.77-.34,1.16-1,1.16H302.91c-.65,0-1-.48-1-1.44s0-2.75.11-5,.1-3.86.1-5c0-.86,0-2.18-.07-3.93s-.07-3.08-.07-4q0-5-3.83-5a6.12,6.12,0,0,0-3.33,1.19c-1.32.87-2,1.78-2,2.74,0,2.13,0,5.32,0,9.55s0,7.41,0,9.52a1.75,1.75,0,0,1-.21,1.09,2,2,0,0,1-1.09.28c-1.05.09-2.72.14-5,.14-1.47,0-3.15-.07-5-.21a2,2,0,0,1-1-.24,2,2,0,0,1-.16-1.06q0-2.81,0-8.41c0-3.73,0-6.54,0-8.41a112.9,112.9,0,0,0-.84-13,3.8,3.8,0,0,1-.07-.63.79.79,0,0,1,.49-.81,12.1,12.1,0,0,1,2.92-.53c1.75-.16,2.79-.27,3.12-.31s1.16-.3,2.78-.74a10.49,10.49,0,0,1,2.77-.49c.44,0,.68.81.7,2.44s.12,2.44.28,2.44a3.71,3.71,0,0,0,.81-.49,33.39,33.39,0,0,1,5-3.38,13.44,13.44,0,0,1,5.86-1.29,11.4,11.4,0,0,1,5.76,1.44,7.43,7.43,0,0,1,3.69,4.53,14.62,14.62,0,0,1,5.13-4.25,13.59,13.59,0,0,1,6.36-1.72A12.43,12.43,0,0,1,332.84,54a8.06,8.06,0,0,1,3.3,6.92c0,1.24,0,3.1-.11,5.6s-.1,4.36-.1,5.6c0,1.48,0,3.69.1,6.66S336.14,84,336.14,85.43Z"/><path class="cls-1" d="M381.55,69.84a18,18,0,0,1-4.42,12.47,15.31,15.31,0,0,1-12,5.12,14.61,14.61,0,0,1-5.79-1.33,12.63,12.63,0,0,1-2.81-1.34c-.31,0-.46.36-.46,1.06,0,1.19.06,3,.17,5.39s.18,4.2.18,5.39c0,.75-.39,1.12-1.16,1.12l-7.16,0a16.36,16.36,0,0,1-3.13-.18,1.21,1.21,0,0,1-1.05-1.3l.07-27a65.66,65.66,0,0,0-1.23-13.8,3,3,0,0,1-.07-.6.69.69,0,0,1,.42-.7A30,30,0,0,1,348.36,53a40.36,40.36,0,0,1,5.45-.59c.91,0,1.43.6,1.56,1.81s.28,1.8.47,1.8c-.23,0,.77-.63,3-1.91a12.44,12.44,0,0,1,6.09-1.91q7.62,0,12.19,5Q381.55,62.08,381.55,69.84Zm-13-.07a7.53,7.53,0,0,0-1.72-4.92,5.76,5.76,0,0,0-4.6-2.21,5.37,5.37,0,0,0-4.5,2.21,8.07,8.07,0,0,0-1.47,4.92,7.76,7.76,0,0,0,1.54,5,5.46,5.46,0,0,0,4.57,2.14Q368.52,76.86,368.52,69.77Z"/><path class="cls-1" d="M398.9,65.59q0,9.59.07,14.71c0,.54,0,1.47.11,2.78s.1,2.12.1,2.77c0,.49-.29.79-.88.88a37.77,37.77,0,0,1-5.69.28,30.11,30.11,0,0,1-5.37-.28,1.05,1.05,0,0,1-.88-1V84.27c0-2.08,0-5.2.07-9.36s.07-7.26.07-9.32q0-14.76,0-13.45a110,110,0,0,0-.88-13.39,3.15,3.15,0,0,1-.07-.59c0-.52.3-.77.91-.77H399c.59,0,.86.24.81.73l0,.63Q398.91,53.93,398.9,65.59Z"/><path class="cls-1" d="M437.5,67.66c0,2.37-.76,3.71-2.28,4-.26,0-2.68.3-7.27.77q-4.15.47-12.37,1.09a5,5,0,0,0,3,3.48,10.61,10.61,0,0,0,4.64,1,13.27,13.27,0,0,0,6.28-1.68l2.67-1.69c.49.23,1.32,1.43,2.48,3.58s1.74,3.53,1.74,4.11c0,.16-.18.43-.53.81q-4.29,4.6-13.31,4.6-8.35,0-13.49-4.88t-5.27-13.24q0-8.09,4.71-13.24,4.85-5.34,12.86-5.34A15.25,15.25,0,0,1,432.79,56,16.34,16.34,0,0,1,437.5,67.66Zm-12.29-2.14a5.44,5.44,0,0,0-1.55-3.83A4.88,4.88,0,0,0,420,60a4.44,4.44,0,0,0-3.65,1.86,6.39,6.39,0,0,0-1.33,4,.86.86,0,0,0,1,1,61.54,61.54,0,0,0,8.08-.81C424.82,66,425.21,65.78,425.21,65.52Z"/><path class="cls-1" d="M472.34,85.78c0,.52-.39.83-1.16,1a32.2,32.2,0,0,1-4.39.28,24.82,24.82,0,0,1-4.11-.28,3.89,3.89,0,0,1-1.3-.7q-1.72-2.46-5.23-7.34-.88,1.05-5.76,7.23a2.09,2.09,0,0,1-1.3.81,18.88,18.88,0,0,1-3.86.28q-5.55,0-5.55-1.23c0-.68,0-1.71,0-3.11s0-2.44,0-3.14a2,2,0,0,1,.63-1.3q2.75-2.83,8.08-8.6-2.46-2.35-4.88-4.71-3.9-3.83-3.9-4.53V54.21c0-.61.41-.91,1.23-.91s2.33,0,4.19.1,3.26.11,4.2.11a1.65,1.65,0,0,1,1.3.77c1.29,1.71,3.09,3.87,5.41,6.5,2.11-2.56,3.78-4.72,5-6.5a1.57,1.57,0,0,1,1.3-.7c1,0,2.45,0,4.39-.14s3.41-.14,4.39-.14c.82,0,1.23.3,1.23.91v6.18a1.68,1.68,0,0,1-.6,1.23q-2.67,2.7-7.9,8.22,2.67,2.77,7.9,8.46a2,2,0,0,1,.6,1.3Z"/><path class="cls-1" d="M243.73,159.54c0,.42-.29.71-.87.88a40.15,40.15,0,0,1-6.54.28,44.05,44.05,0,0,1-6.46-.28,1.91,1.91,0,0,1-1.51-1.58c-.79-3.37-1.42-5.18-1.86-5.41s-3.51-.25-9.41-.25q-6,0-6.36.32c-.4.37-.84,1.63-1.33,3.76-.45,1.94-1,3-1.62,3.16a58.74,58.74,0,0,1-8,.28q-5.37,0-5.37-1t7.94-22.44q8.59-23.3,9.34-25.61c.28-.89.61-1.33,1-1.33q.94,0,2.94.18c1.32.11,2.31.17,3,.17s1.57,0,2.79-.12,2.15-.12,2.76-.12c.45,0,.86.38,1.23,1.15q1.72,3.69,10,25.29Q243.74,158.6,243.73,159.54Zm-24.9-32c-.49,1-1.32,3.27-2.49,6.71a37.23,37.23,0,0,0-1.9,6.43c0,.42.71.66,2.11.7.73.05,1.92.07,3.58.07s2.4-.18,2.57-.56a1.55,1.55,0,0,0,.07-.49,34.19,34.19,0,0,0-1.62-6.39A48.34,48.34,0,0,0,218.83,127.54Z"/><path class="cls-1" d="M282.05,151.29q0,10-4.21,14.36-4.36,4.46-14.47,4.46a46,46,0,0,1-8.05-1q-6.49-1.18-6.49-2.81c0-.44.5-2.74,1.51-6.88.16-.66.42-1,.77-1a1.42,1.42,0,0,1,.39.14,22.78,22.78,0,0,0,10,2.67,11.06,11.06,0,0,0,5-1.27c2-1,3-2.27,3-3.79v-2.35a12.93,12.93,0,0,1-9.2,3.37,14,14,0,0,1-10.86-4.74,17.6,17.6,0,0,1-.17-22.38,13.75,13.75,0,0,1,10.75-4.6,9.48,9.48,0,0,1,8.11,3.8c.37.51.63.77.77.77s.32-.42.32-1.27c0-1.87.21-2.81.63-2.81s2.4.2,6.08.58,5.58.61,5.72.65a.88.88,0,0,1,.6.92q0,2.41-.16,7.23c-.1,3.21-.16,5.62-.16,7.24,0,1,0,2.4,0,4.32S282.05,150.33,282.05,151.29Zm-12.15-9.73a6.41,6.41,0,0,0-1.7-4.44,5.76,5.76,0,0,0-8.54,0,6.56,6.56,0,0,0-1.7,4.48,6.24,6.24,0,0,0,1.74,4.42,5.59,5.59,0,0,0,4.23,1.87,5.52,5.52,0,0,0,4.27-1.9A6.49,6.49,0,0,0,269.9,141.56Z"/><path class="cls-1" d="M311.41,138.54c0,.91-.5,1.37-1.51,1.37q-.66,0-1.95-.09c-.85-.06-1.49-.09-1.91-.09-1.94,0-3.27.31-4,.92s-1.05,1.83-1.05,3.68c0,1,0,2.54.05,4.59s.05,3.57.05,4.58c0,.68.05,1.69.14,3s.14,2.35.14,3-.38.88-1.15,1c-1.13.09-2.85.14-5.17.14s-4-.07-5.34-.21c-.77-.1-1.16-.48-1.16-1.16,0-1.87,0-4.68,0-8.41s0-6.54,0-8.41a51.33,51.33,0,0,0-1.51-13.6,2.36,2.36,0,0,1-.08-.52.7.7,0,0,1,.53-.71c1.29-.14,3.17-.39,5.66-.77,3.7-.72,5.6-1.09,5.72-1.09q.63,0,.81,2.22c.12,1.47.33,2.21.63,2.21-.33,0,.63-.62,2.88-1.85a13.63,13.63,0,0,1,6.5-1.84c1.31,0,2,.28,2,.84a25.46,25.46,0,0,1-.22,2.88q-.21,2-.24,2.88c0,.68,0,1.58,0,2.71C311.39,137.18,311.41,138.09,311.41,138.54Z"/><path class="cls-1" d="M349.31,143.14q0,8-4.9,13t-12.87,5a17.37,17.37,0,0,1-12.72-4.92,17,17,0,0,1-5-12.64q0-8.15,4.77-13.22t12.93-5.08q7.93,0,12.85,5T349.31,143.14Zm-11.52,0a7.55,7.55,0,0,0-1.72-4.9,5.47,5.47,0,0,0-4.46-2.13,5.68,5.68,0,0,0-4.57,2.18,7.88,7.88,0,0,0,0,9.73,5.68,5.68,0,0,0,4.57,2.18,5.61,5.61,0,0,0,4.53-2.18A7.52,7.52,0,0,0,337.79,143.14Z"/></g></g></g></svg>