<svg id="Layer_1" data-name="Layer 1" xmlns="http://www.w3.org/2000/svg" xmlns:xlink="http://www.w3.org/1999/xlink" viewBox="0 0 464.94 193.02"><defs><style>.cls-1,.cls-12,.cls-9{fill:none;}.cls-2{fill:#5ba26b;}.cls-3{fill:#2e4d33;}.cls-4{clip-path:url(#clip-path);}.cls-5{fill:#2c5432;}.cls-6{fill:#52825f;}.cls-7{clip-path:url(#clip-path-2);}.cls-8{fill:#396b42;}.cls-9{stroke:#5ba26b;}.cls-12,.cls-9{stroke-linecap:round;stroke-miterlimit:10;stroke-width:4.19px;}.cls-10{clip-path:url(#clip-path-3);}.cls-11{clip-path:url(#clip-path-4);}.cls-12{stroke:#2c5432;}.cls-13{clip-path:url(#clip-path-5);}.cls-14{clip-path:url(#clip-path-6);}.cls-15{clip-path:url(#clip-path-7);}</style><clipPath id="clip-path"><path class="cls-1" d="M96.69,2.11v41.4c-.21,0-.44,0-.65,0a53,53,0,0,0,0,106,4.72,4.72,0,0,0,.65,0v41.4a94.4,94.4,0,0,1,0-188.8Z"/></clipPath><clipPath id="clip-path-2"><path class="cls-1" d="M86.67,194.73c10.91-5.82,19.52-14.33,24.73-25.49a44.08,44.08,0,0,0,4.25-17.1c.59-9.29-5-11.62-13.13-9.66a66.68,66.68,0,0,0-29.11,16.35C66.17,165.89,60.93,175,55.46,183.2a114.54,114.54,0,0,1-27.17,28.93,68.94,68.94,0,0,1-17.68,9.56l-.16.05a124.43,124.43,0,0,0,20.22,14c5.79-5.89,11.81-11.47,18.14-16.82C60.66,209,73.16,201.94,86.67,194.73Z"/></clipPath><clipPath id="clip-path-3"><path class="cls-2" d="M23.53,66.78c13.87,5.87,25.39,15.87,36.55,25.8,10.71,9.52,21.76,23.48,37,25,5.67.56,13-.21,12.68-7.46-.23-4.74-3.66-9.65-6.07-13.21A83.27,83.27,0,0,0,98.53,90a97.23,97.23,0,0,0-38.32-28C40,53.94,10.7,51.08-8.08,50.05a126.17,126.17,0,0,0-7.14,10.42C-1.93,60,11.33,61.62,23.53,66.78Z"/></clipPath><clipPath id="clip-path-4"><path class="cls-1" d="M22.36,126.7c5,1,19.51,1.47,24.29,4.48,5.09,3.2,13.3,2.55,19,2.35,6-.22,13.39-.55,19.08-2.77,3.69-1.44,7.43-3,10.67-4.51-.31,0-.63-.07-.94-.13a40,40,0,0,1-11.28-4,61.67,61.67,0,0,1-9.55-6.4c-20.52-16.87-35.86-39.23-63-45.84a103,103,0,0,0-29.82-2.57Q-21.8,72.34-24,77.66c13.25,3.24-12.66,28.32-.49,34.45C-13.54,117.65.48,122.53,22.36,126.7Z"/></clipPath><clipPath id="clip-path-5"><path class="cls-1" d="M92.39,68.78a1.4,1.4,0,0,0,2.42-1.13c-.69-5.34-.94-7-1.35-10.85a200.48,200.48,0,0,1-1.17-22.59,159.51,159.51,0,0,1,3.51-33c-1.78-.07-3.57-.12-5.38-.12A123.15,123.15,0,0,0,57,5.72c4.25,24.81,19,45.2,30.85,58.13C89.39,65.56,90.88,67.09,92.39,68.78Z"/></clipPath><clipPath id="clip-path-6"><path class="cls-1" d="M7.07,165.67h0c-8-2.48-16.83-1.59-24.85,1a75.65,75.65,0,0,0-8.13,3.18,125.07,125.07,0,0,0,10.36,21.44A54.17,54.17,0,0,0,7.07,165.67Z"/></clipPath><clipPath id="clip-path-7"><path class="cls-1" d="M130.11,220.68a221.09,221.09,0,0,1-9.5-20.43,95.44,95.44,0,0,1-3.75-11.09,57.47,57.47,0,0,1-1.14-6.42.08.08,0,0,0-.15,0,55.61,55.61,0,0,1-4.66,6.27c-3.79,4.35-9.57,8.19-12.65,13.2s-4,11.24-4.47,17a93.49,93.49,0,0,0,.7,21.47c.12.81,1.24,5.68,2.39,10.32a122.57,122.57,0,0,0,44.38-10.77l-.11-.14C137.19,233.67,133.58,227.28,130.11,220.68Z"/></clipPath></defs><path class="cls-2" d="M96,67.42c.21,0,.44,0,.65,0v58.14c-.21,0-.44,0-.65,0a29.09,29.09,0,0,1,0-58.18Z"/><path class="cls-3" d="M149,94.76A53,53,0,0,0,96.69,43.51V67.44a29.08,29.08,0,0,1,0,58.14v23.93a52.54,52.54,0,0,0,29.9-9.67v6.26a3.11,3.11,0,0,0,3.1,3.1H146a3.11,3.11,0,0,0,3.1-3.1V95.57A2.37,2.37,0,0,0,149,94.76Z"/><g class="cls-4"><path class="cls-2" d="M96.69,2.11v41.4c-.21,0-.44,0-.65,0a53,53,0,0,0,0,106,4.72,4.72,0,0,0,.65,0v41.4a94.4,94.4,0,0,1,0-188.8Z"/><path class="cls-2" d="M24,206.36A107,107,0,0,0,48,178.45c2.88-4.77,5.87-8.8,9.59-15.82h0c-10,1.83-19.47-4.18-29.51-2.5-9.7,1.62-16.76,9.63-22.19,17.89-4.81,7.29-10.51,15.16-18.5,17.9A125.35,125.35,0,0,0,5,216.85c1.14-.35,2.27-.73,3.38-1.18A62.43,62.43,0,0,0,24,206.36Z"/><path class="cls-5" d="M86.06,70.23c-.8-.9-1.58-1.77-2.32-2.58C71.44,54.28,56.24,33.21,51.61,7.36A124.22,124.22,0,0,0-3.73,44.66c19.07,1.21,46.28,4.27,66,12A92.46,92.46,0,0,1,86.06,70.23Z"/><path class="cls-5" d="M6,159.73c5.26,1.47,7.34-.41,11.77-3.08,14.29-8.59,32.43,4.72,46.91-4.4,3-1.92,5.75-4.76,8.26-7.32,1.34-1.36,3.21-4.07,5.25-4.37h0a99.07,99.07,0,0,1-24.09.29C32.33,138.45,12,128.94-9.4,124.36c-8.13-1.74-17.09-2.64-24.31,1.47,0,.1,0,.2,0,.3a125.82,125.82,0,0,0,6,38.39A76.91,76.91,0,0,1-18.44,161C-10.73,158.62-1.91,157.53,6,159.73Z"/><path class="cls-6" d="M125.24,44.18c4.7,14.09,11.86,25.21,9.23,40.75-.66,3.9-1.61,11.41.91,15,3.15,4.49,10.87,2.47,15.46,2.16,8.16-.56,15.63-2.15,23.92-1.42,14.37,1.25,19.86-8.16,29.86-16.36a10.07,10.07,0,0,1,2.28-1.51A124.78,124.78,0,0,0,123.59,5.64C121.69,18.58,121,31.56,125.24,44.18Z"/><path class="cls-6" d="M101.12,68.45c1,7.32,8.94,25.23,19,18.48,3.86-2.58,3.26-9.9,2.51-13.8C121.85,69,120.23,65,118.87,61a105.2,105.2,0,0,1-5.3-26.86,130.94,130.94,0,0,1,1.68-30.54,122.57,122.57,0,0,0-13.78-2C96.75,23.45,98.12,46.46,101.12,68.45Z"/><path class="cls-6" d="M146.23,147.5c-12.85,4.43-20.46,15.85-20.35,29.45.11,13.76,7.06,27.11,13.1,39.09,2.68,5.26,7.05,13.81,10.55,20.05a125.08,125.08,0,0,0,62.09-82.82c-3.65-.51-7.32-1.36-9-1.49C181.89,150.1,167.42,140.21,146.23,147.5Z"/><g class="cls-7"><path class="cls-8" d="M86.67,194.73c10.91-5.82,19.52-14.33,24.73-25.49a44.08,44.08,0,0,0,4.25-17.1c.59-9.29-5-11.62-13.13-9.66a66.68,66.68,0,0,0-29.11,16.35C66.17,165.89,60.93,175,55.46,183.2a114.54,114.54,0,0,1-27.17,28.93,68.94,68.94,0,0,1-17.68,9.56l-.16.05a124.43,124.43,0,0,0,20.22,14c5.79-5.89,11.81-11.47,18.14-16.82C60.66,209,73.16,201.94,86.67,194.73Z"/><path class="cls-9" d="M58.9,180.26S92.27,201,131.32,166"/><path class="cls-9" d="M58.9,168.34s33.37,20.73,72.42-14.3"/><path class="cls-9" d="M58.9,156.42s33.37,20.74,72.42-14.29"/><path class="cls-9" d="M58.9,144.51s33.37,20.73,72.42-14.3"/><path class="cls-9" d="M34.74,243c-1.31-2.56-21.2-27.06-18.72-67.74"/><path class="cls-9" d="M45.42,239.2c-1-2-19.61-24.49-16.21-61.55"/><path class="cls-9" d="M56.11,235.4c-.79-1.54-18-21.91-13.72-55.35"/><path class="cls-9" d="M66.79,231.6c-.52-1-16.42-19.33-11.21-49.16"/><path class="cls-9" d="M77.47,227.8c-.26-.51-14.83-16.75-8.71-43"/><path class="cls-9" d="M88.16,224S74.92,209.82,82,187.24"/></g><path class="cls-2" d="M23.53,66.78c13.87,5.87,25.39,15.87,36.55,25.8,10.71,9.52,21.76,23.48,37,25,5.67.56,13-.21,12.68-7.46-.23-4.74-3.66-9.65-6.07-13.21A83.27,83.27,0,0,0,98.53,90a97.23,97.23,0,0,0-38.32-28C40,53.94,10.7,51.08-8.08,50.05a126.17,126.17,0,0,0-7.14,10.42C-1.93,60,11.33,61.62,23.53,66.78Z"/><g class="cls-10"><path class="cls-2" d="M23.53,66.78c13.87,5.87,25.39,15.87,36.55,25.8,10.71,9.52,21.76,23.48,37,25,5.67.56,13-.21,12.68-7.46-.23-4.74-3.66-9.65-6.07-13.21A83.27,83.27,0,0,0,98.53,90a97.23,97.23,0,0,0-38.32-28C40,53.94,10.7,51.08-8.08,50.05a126.17,126.17,0,0,0-7.14,10.42C-1.93,60,11.33,61.62,23.53,66.78Z"/></g><g class="cls-11"><path class="cls-2" d="M24.45,148.58c1.51,4.9,17.42-20.41,22.2-17.4,5.09,3.2,13.3,2.55,19,2.35,6-.22,13.39-.55,19.08-2.77,3.69-1.44,7.43-3,10.67-4.51-.31,0-.63-.07-.94-.13a40,40,0,0,1-11.28-4,61.67,61.67,0,0,1-9.55-6.4c-20.52-16.87-35.86-39.23-63-45.84a103,103,0,0,0-29.82-2.57Q-21.8,72.34-24,77.66c13.25,3.24-46,64.79-33.84,70.92C-46.89,154.13,20.79,136.76,24.45,148.58Z"/><path class="cls-12" d="M42.21,76.45S25.4,113.51,66,149.27"/><path class="cls-12" d="M54.33,74.92S37.52,112,78.13,147.74"/><path class="cls-12" d="M66.44,73.39s-16.81,37.06,23.81,72.82"/><path class="cls-12" d="M78.56,71.86s-16.81,37.06,23.8,72.82"/><path class="cls-5" d="M-22.49,95.1a2.24,2.24,0,0,1-2-1.22,2.23,2.23,0,0,1,1-3c.22-.13.91-.7,1.52-1.2,6.28-5.21,25.4-21.07,64.79-18.22a2.23,2.23,0,1,1-.32,4.44C4.87,73.19-13.21,88.19-19.15,93.11a14.08,14.08,0,0,1-2.34,1.75A2.23,2.23,0,0,1-22.49,95.1Z"/><path class="cls-5" d="M-19,108A2.25,2.25,0,0,1-21,106.92a2.25,2.25,0,0,1,.77-3c.19-.14.71-.65,1.17-1.1C-3.93,88.14,16,80.8,40.15,81a2.24,2.24,0,0,1,0,4.48h-.8c-34.05,0-50,15.46-55.27,20.57a11.3,11.3,0,0,1-2,1.73A2.23,2.23,0,0,1-19,108Z"/><path class="cls-5" d="M-17.07,123.05a2.26,2.26,0,0,1-1.86-1,2.26,2.26,0,0,1,.45-3c.15-.14.5-.57.82-1C-4.74,102.52,13,93.66,35.11,91.74a2.25,2.25,0,1,1,.4,4.49C14.65,98.05-2.07,106.37-14.19,121a9.07,9.07,0,0,1-1.6,1.7A2.25,2.25,0,0,1-17.07,123.05Zm-1.28-4.12-.09.07Z"/><path class="cls-5" d="M-8.74,133.89a2.26,2.26,0,0,1-1.87-1,2.28,2.28,0,0,1,.35-3c.12-.14.3-.37.54-.68,14.84-19,34.5-24.72,48.38-26.13a2.27,2.27,0,0,1,.45,4.52C26.12,109,7.72,114.26-6.14,132a6.3,6.3,0,0,1-1.31,1.46A2.3,2.3,0,0,1-8.74,133.89Zm-1.3-4.14Z"/><path class="cls-5" d="M-.42,144.73a2.26,2.26,0,0,1-1.88-1,2.27,2.27,0,0,1,.21-2.85c.06-.08.14-.21.26-.36a62.87,62.87,0,0,1,44-26,2.29,2.29,0,0,1,.54,4.54A58.37,58.37,0,0,0,1.88,143.19a4.08,4.08,0,0,1-1,1.14A2.31,2.31,0,0,1-.42,144.73Zm-1.3-4.16Zm0,0h0Z"/><path class="cls-5" d="M7.9,155.57a2.29,2.29,0,0,1-2-3.45c.53-.92,13.32-22.45,39.79-26.24a2.3,2.3,0,0,1,.65,4.55c-24.21,3.47-36.35,23.8-36.47,24A2.3,2.3,0,0,1,7.9,155.57Z"/></g><g class="cls-13"><path class="cls-8" d="M92.39,68.78a1.4,1.4,0,0,0,2.42-1.13c-.69-5.34-.94-7-1.35-10.85a200.48,200.48,0,0,1-1.17-22.59,159.51,159.51,0,0,1,3.51-33c-1.78-.07-3.57-.12-5.38-.12A123.15,123.15,0,0,0,57,5.72c4.25,24.81,19,45.2,30.85,58.13C89.39,65.56,90.88,67.09,92.39,68.78Z"/><path class="cls-9" d="M89.11.71S61.81,29.06,87.37,75"/><path class="cls-9" d="M100.66,3.28S73.37,31.63,98.93,77.57"/><path class="cls-9" d="M112.22,5.85s-27.3,28.34-1.74,74.29"/><path class="cls-9" d="M123.77,8.41S96.48,36.76,122,82.71"/><path class="cls-9" d="M73.75,32.84c-2.8-.55-34.22,0-64.39-27.18"/><path class="cls-9" d="M77.42,22c-2.25-.44-31.24.33-58-25.32"/><path class="cls-9" d="M81.08,11.24c-1.69-.33-28.24.67-51.64-23.46"/><path class="cls-9" d="M84.74.45c-1.13-.22-25.25,1-45.27-21.6"/></g><g class="cls-14"><path class="cls-2" d="M7.07,165.67h0c-8-2.48-16.83-1.59-24.85,1a75.65,75.65,0,0,0-8.13,3.18,125.07,125.07,0,0,0,10.36,21.44A54.17,54.17,0,0,0,7.07,165.67Z"/><path class="cls-12" d="M-19.94,132.35S-35.33,170,6.62,204.21"/><path class="cls-12" d="M-7.89,130.36S-23.28,168,18.66,202.22"/><path class="cls-12" d="M4.16,128.37S-11.23,166,30.71,200.23"/><path class="cls-12" d="M16.21,126.38S.82,164.05,42.76,198.24"/></g><g class="cls-15"><path class="cls-2" d="M130.11,220.68a221.09,221.09,0,0,1-9.5-20.43,95.44,95.44,0,0,1-3.75-11.09,57.47,57.47,0,0,1-1.14-6.42.08.08,0,0,0-.15,0,55.61,55.61,0,0,1-4.66,6.27c-3.79,4.35-9.57,8.19-12.65,13.2s-4,11.24-4.47,17a93.49,93.49,0,0,0,.7,21.47c.12.81,1.24,5.68,2.39,10.32a122.57,122.57,0,0,0,44.38-10.77l-.11-.14C137.19,233.67,133.58,227.28,130.11,220.68Z"/><path class="cls-12" d="M125.76,244c-1-2.71-17.29-29.56-9.39-69.34"/><path class="cls-12" d="M136.8,241.65c-.76-2.16-16.06-26.8-7.75-62.88"/><path class="cls-12" d="M147.84,239.36c-.57-1.62-14.83-24.05-6.11-56.44"/><path class="cls-12" d="M158.88,237.07c-.38-1.08-13.6-21.29-4.47-50"/><path class="cls-12" d="M169.93,234.78c-.19-.55-12.38-18.54-2.84-43.55"/></g><path class="cls-1" d="M96.68,190.91a94.4,94.4,0,0,1,0-188.79Z"/></g><path class="cls-3" d="M233.1,72.36a2.63,2.63,0,0,1-.72,1.45q-6.34,7.55-16.86,7.54-10.76,0-17.44-7.34-6.51-7.1-6.51-17.92a26.1,26.1,0,0,1,6.37-17.78,21.47,21.47,0,0,1,16.93-7.66q11.16,0,17.51,6.86a2.18,2.18,0,0,1,.69,1.35q0,.64-2.4,4.86a28,28,0,0,1-3,4.72.94.94,0,0,1-.68.28,9.11,9.11,0,0,1-1.73-1.38,18,18,0,0,0-3.65-2.59,12.37,12.37,0,0,0-5.65-1.38,9.86,9.86,0,0,0-8.1,3.79,13.56,13.56,0,0,0-2.8,8.69,13.81,13.81,0,0,0,2.8,8.79,9.78,9.78,0,0,0,8.1,3.86,12.82,12.82,0,0,0,5.68-1.31,17.62,17.62,0,0,0,3.59-2.41,8.26,8.26,0,0,1,1.69-1.31.94.94,0,0,1,.69.38c.36.41,1.36,1.85,3,4.3A25.11,25.11,0,0,1,233.1,72.36Z"/><path class="cls-3" d="M269.74,63.19q0,7.86-4.81,12.75t-12.63,4.9A17,17,0,0,1,239.82,76a16.66,16.66,0,0,1-4.89-12.41q0-8,4.68-13t12.69-5q7.79,0,12.61,4.87T269.74,63.19Zm-11.31,0a7.41,7.41,0,0,0-1.69-4.81,5.35,5.35,0,0,0-4.37-2.08,5.55,5.55,0,0,0-4.48,2.13,7.7,7.7,0,0,0,0,9.55,5.72,5.72,0,0,0,8.92,0A7.36,7.36,0,0,0,258.43,63.19Z"/><path class="cls-3" d="M329,78.87c0,.81-.35,1.26-1,1.35s-2.39.14-5.1.14a37.21,37.21,0,0,1-5.24-.21c-.69-.14-1-.7-1-1.69s0-2.64.1-4.74.1-3.68.1-4.74q0-6-.13-8.58-.21-4.09-3.9-4.1a5,5,0,0,0-3.22,1.36,4.61,4.61,0,0,0-1.78,3q-.13,1.45-.13,8.48c0,1.08,0,2.72.1,4.91s.1,3.85.1,5c0,.76-.33,1.14-1,1.14H296.38q-1,0-1-1.41c0-1.08,0-2.7.1-4.86s.1-3.8.1-4.9c0-.85,0-2.14-.07-3.86s-.07-3-.07-3.89q0-4.93-3.75-4.93a6,6,0,0,0-3.28,1.17c-1.28.85-1.93,1.75-1.93,2.69q0,3.14,0,9.37c0,4.16,0,7.28,0,9.34a1.69,1.69,0,0,1-.21,1.07,1.9,1.9,0,0,1-1.06.28c-1,.09-2.67.14-4.9.14-1.45,0-3.09-.07-4.93-.21a1.89,1.89,0,0,1-1-.24,2.05,2.05,0,0,1-.15-1c0-1.83,0-4.59,0-8.25s0-6.42,0-8.26a110.78,110.78,0,0,0-.83-12.71,3.82,3.82,0,0,1-.07-.62.79.79,0,0,1,.48-.8,11.92,11.92,0,0,1,2.86-.51c1.73-.16,2.75-.27,3.07-.31s1.14-.29,2.72-.73a10.58,10.58,0,0,1,2.73-.48c.43,0,.66.8.68,2.39s.12,2.4.28,2.4a3.4,3.4,0,0,0,.79-.48A32.49,32.49,0,0,1,292,47.2a13.12,13.12,0,0,1,5.75-1.28,11.17,11.17,0,0,1,5.66,1.42,7.32,7.32,0,0,1,3.61,4.44,14.61,14.61,0,0,1,5-4.17,13.37,13.37,0,0,1,6.23-1.69A12.17,12.17,0,0,1,325.75,48,7.92,7.92,0,0,1,329,54.82c0,1.21,0,3-.11,5.49s-.1,4.28-.1,5.5q0,2.18.1,6.53T329,78.87Z"/><path class="cls-3" d="M373.55,63.57a17.71,17.71,0,0,1-4.34,12.24,15,15,0,0,1-11.76,5,14.45,14.45,0,0,1-5.68-1.31A13.19,13.19,0,0,1,349,78.22c-.3,0-.45.34-.45,1,0,1.17.06,2.94.17,5.29s.18,4.12.18,5.29a1,1,0,0,1-1.14,1.11l-7,0a17,17,0,0,1-3.07-.17,1.2,1.2,0,0,1-1-1.28L336.71,63a64.83,64.83,0,0,0-1.21-13.54,2.82,2.82,0,0,1-.07-.59.69.69,0,0,1,.41-.69,29.93,29.93,0,0,1,5.14-1.1,38.46,38.46,0,0,1,5.34-.58c.9,0,1.41.59,1.54,1.77s.28,1.77.46,1.77c-.23,0,.75-.62,2.95-1.87a12.21,12.21,0,0,1,6-1.88q7.47,0,12,4.93Q373.55,56,373.55,63.57Zm-12.79-.07a7.35,7.35,0,0,0-1.69-4.82,5.66,5.66,0,0,0-4.51-2.18,5.26,5.26,0,0,0-4.41,2.18,7.86,7.86,0,0,0-1.45,4.82,7.65,7.65,0,0,0,1.52,4.86,5.34,5.34,0,0,0,4.48,2.1Q360.76,70.46,360.76,63.5Z"/><path class="cls-3" d="M390.58,59.4q0,9.41.07,14.44c0,.53,0,1.44.1,2.72s.1,2.08.1,2.73c0,.48-.29.77-.86.86a38.1,38.1,0,0,1-5.58.27,30.48,30.48,0,0,1-5.28-.27,1,1,0,0,1-.86-.93V77.74q0-3.08.07-9.19t.07-9.15q0-14.48,0-13.2a106.08,106.08,0,0,0-.86-13.13,4.49,4.49,0,0,1-.07-.59c0-.5.3-.76.9-.76h12.3c.58,0,.84.24.8.73l0,.62Q390.57,48,390.58,59.4Z"/><path class="cls-3" d="M428.45,61.43c0,2.32-.74,3.65-2.24,4-.25,0-2.63.3-7.13.76Q415,66.6,407,67.22a4.9,4.9,0,0,0,2.93,3.42,10.38,10.38,0,0,0,4.55,1A13.07,13.07,0,0,0,420.6,70l2.62-1.66c.48.23,1.29,1.4,2.43,3.52a13,13,0,0,1,1.7,4c0,.16-.17.43-.52.79q-4.2,4.52-13.06,4.52-8.2,0-13.23-4.79-5.18-4.86-5.17-13,0-7.92,4.62-13,4.75-5.23,12.61-5.24A15,15,0,0,1,423.84,50,16,16,0,0,1,428.45,61.43Zm-12.06-2.1a5.31,5.31,0,0,0-1.52-3.76A4.77,4.77,0,0,0,411.26,54a4.35,4.35,0,0,0-3.59,1.83,6.31,6.31,0,0,0-1.31,4c0,.62.32.93,1,.93a60,60,0,0,0,7.92-.79C416,59.77,416.39,59.58,416.39,59.33Z"/><path class="cls-3" d="M462.64,79.22c0,.5-.37.81-1.13.93a32.79,32.79,0,0,1-4.31.27,25.1,25.1,0,0,1-4-.27,3.87,3.87,0,0,1-1.28-.69c-1.12-1.61-2.84-4-5.13-7.2q-.87,1-5.66,7.1a2,2,0,0,1-1.27.79,19.14,19.14,0,0,1-3.79.27q-5.44,0-5.45-1.2c0-.67,0-1.68,0-3s0-2.4,0-3.09a2,2,0,0,1,.62-1.27Q434,69,439.21,63.36l-4.79-4.61Q430.6,55,430.59,54.3V48.23c0-.59.4-.89,1.21-.89s2.29,0,4.12.1,3.2.1,4.12.1a1.66,1.66,0,0,1,1.27.76c1.26,1.68,3,3.8,5.31,6.38,2.07-2.51,3.71-4.63,4.93-6.38a1.54,1.54,0,0,1,1.27-.69c1,0,2.4,0,4.31-.14s3.34-.13,4.31-.13c.8,0,1.2.3,1.2.89V54.3a1.6,1.6,0,0,1-.58,1.2q-2.62,2.66-7.76,8.07c1.75,1.82,4.34,4.58,7.76,8.31a1.92,1.92,0,0,1,.58,1.27Z"/><path class="cls-3" d="M238.3,151.6c0,.41-.28.7-.86.86a38.5,38.5,0,0,1-6.41.28,42.4,42.4,0,0,1-6.34-.28,1.85,1.85,0,0,1-1.48-1.55q-1.17-5-1.83-5.31c-.37-.16-3.44-.24-9.24-.24-3.9,0-6,.11-6.23.31-.39.37-.83,1.6-1.31,3.69-.44,1.91-1,2.94-1.59,3.1a56.46,56.46,0,0,1-7.86.28q-5.27,0-5.27-1t7.79-22q8.45-22.86,9.17-25.13c.27-.87.59-1.31,1-1.31.62,0,1.58.06,2.88.17s2.27.17,2.91.17,1.54,0,2.74-.12,2.11-.12,2.71-.12c.43,0,.84.38,1.2,1.14q1.69,3.62,9.86,24.82T238.3,151.6Zm-24.43-31.4q-.72,1.51-2.45,6.59a35.62,35.62,0,0,0-1.86,6.3q0,.63,2.07.69c.71.05,1.88.07,3.51.07s2.36-.18,2.52-.55a1.25,1.25,0,0,0,.07-.48,33.58,33.58,0,0,0-1.59-6.28A49.32,49.32,0,0,0,213.87,120.2Z"/><path class="cls-3" d="M275.91,143.5q0,9.83-4.14,14.1T257.57,162a45,45,0,0,1-7.89-.94q-6.37-1.17-6.38-2.75c0-.44.5-2.69,1.48-6.76.16-.64.42-1,.76-1a1.37,1.37,0,0,1,.38.14,22.45,22.45,0,0,0,9.82,2.61,10.75,10.75,0,0,0,4.93-1.24q3-1.47,3-3.72v-2.31a12.65,12.65,0,0,1-9,3.31A13.67,13.67,0,0,1,244,144.71a17.24,17.24,0,0,1-.18-22,13.48,13.48,0,0,1,10.55-4.51,9.3,9.3,0,0,1,8,3.72c.37.51.62.76.76.76s.31-.41.31-1.24c0-1.84.21-2.76.62-2.76s2.36.19,6,.57,5.48.59,5.62.64a.84.84,0,0,1,.59.89q0,2.39-.16,7.1t-.15,7.1c0,.95,0,2.36,0,4.24S275.91,142.56,275.91,143.5ZM264,134a6.31,6.31,0,0,0-1.67-4.36,5.44,5.44,0,0,0-4.19-1.84,5.37,5.37,0,0,0-4.18,1.88,6.38,6.38,0,0,0-1.68,4.39,6.15,6.15,0,0,0,1.71,4.35,5.49,5.49,0,0,0,4.15,1.82,5.39,5.39,0,0,0,4.19-1.86A6.36,6.36,0,0,0,264,134Z"/><path class="cls-3" d="M304.72,131c0,.9-.49,1.34-1.48,1.34-.44,0-1.08,0-1.91-.08s-1.47-.09-1.88-.09q-2.86,0-3.9.9c-.69.6-1,1.8-1,3.62,0,1,0,2.49.05,4.5s.05,3.51.05,4.49c0,.67.05,1.66.14,3s.14,2.31.14,2.95-.38.86-1.14.93c-1.1.09-2.79.14-5.07.14a51.48,51.48,0,0,1-5.23-.21c-.76-.09-1.14-.47-1.14-1.13q0-2.76,0-8.26c0-3.66,0-6.42,0-8.25a50,50,0,0,0-1.49-13.34,2.85,2.85,0,0,1-.06-.52.68.68,0,0,1,.51-.69q1.9-.21,5.55-.76,5.44-1.07,5.62-1.07c.41,0,.68.73.79,2.18s.32,2.17.62,2.17c-.32,0,.62-.61,2.83-1.81a13.26,13.26,0,0,1,6.38-1.81c1.28,0,1.93.27,1.93.83a26.59,26.59,0,0,1-.21,2.82c-.14,1.31-.22,2.25-.24,2.83s0,1.55,0,2.65C304.7,129.66,304.72,130.55,304.72,131Z"/><path class="cls-3" d="M341.91,135.51c0,5.23-1.6,9.49-4.81,12.75s-7.41,4.89-12.63,4.89A17.08,17.08,0,0,1,312,148.33a16.69,16.69,0,0,1-4.89-12.41q0-8,4.69-13t12.68-5q7.78,0,12.61,4.88T341.91,135.51Zm-11.3,0a7.45,7.45,0,0,0-1.69-4.81,5.39,5.39,0,0,0-4.38-2.09,5.53,5.53,0,0,0-4.48,2.14,7.7,7.7,0,0,0,0,9.55,5.74,5.74,0,0,0,8.93,0A7.38,7.38,0,0,0,330.61,135.51Z"/></svg>