<svg xmlns="http://www.w3.org/2000/svg" width="101" height="93" viewBox="0 0 101 93"><g><g><path fill="#2c5432" d="M30.192 24.418c-.468-2.2.664-3.614 2.804-3.867 3.161-.372 6.353-.484 9.692-.72-.224-.722-.7-1.815-.88-2.954-.236-1.495-.384-3.033-.314-4.541C41.741 6.946 46.51.304 49.94.43c3.282.12 8.25 6.704 8.438 11.705.1 2.669-.534 5.365-.807 7.788 2.828.135 5.93.14 8.995.474 2.484.27 3.891 1.809 3.312 4.428-.668 3.025-1.554 6.003-2.418 9.273 3.491 1.203 2.733 4.392 2.088 7.339-1.433 6.554-6.982 11.118-13.679 11.46-1.007.052-2.02.008-3.53.008 0 3.124-.042 6.133.017 9.14.032 1.608-.138 2.705-2.224 2.738-2.203.034-2.484-1.063-2.432-2.842.085-2.917.023-5.838.023-8.875-2.06-.116-3.784-.058-5.453-.332-7.185-1.18-12.63-8.016-12.006-15.32.112-1.311 1.446-2.52 2.19-3.732-.753-3.05-1.594-6.138-2.26-9.264zm19.987-3.55c5.064-3.988 5.017-10.971-.279-15.234-5.303 4.446-5.103 11.909.28 15.234zm14.682 6.197c.152-.69-.566-2.17-1.14-2.323-5.28-1.422-11.373 3.864-10.98 9.375 5.598 1.339 10.945-1.697 12.12-7.052zm-28.345 11.43c-.626.14-1.502 1.556-1.386 2.23.925 5.393 6.801 8.672 12.288 7.016.014-5.702-5.498-10.463-10.902-9.246zm-1.015-10.066c1.546 3.915 6.087 6.578 10.278 6.17 1.706-.164 1.994-.94 1.642-2.436-.95-4.05-5.13-7.48-9.284-7.533-3.272-.042-3.833.768-2.636 3.799zm29.408 10.43c-6.103-1.828-11.86 2.233-12.324 8.898 6.678 1.522 12.166-2.512 12.324-8.898z"/></g><g><path fill="#2c5432" d="M76.074 70.48l-2.944-1.563c1.957-4.187 3.783-8.12 5.636-12.042.713-1.507 1.635-3.096-.393-4.219-1.989-1.1-2.953.446-3.85 1.851-4.426 6.936-8.805 13.901-13.274 20.81-2.876 4.445-1.951 9.404-2.204 14.226-.05.955-.407 2.38-1.07 2.726-1.972 1.026-3.527-.092-3.483-2.374.074-3.85.04-7.733.553-11.534.273-2.022 1.372-4.045 2.491-5.82 4.33-6.874 8.843-13.632 13.241-20.463 3.852-5.982 9.165-6.088 13.274-.22.16.23.415.391 1.164 1.076 0-3.826-.078-7.13.025-10.428.083-2.619.03-5.326.681-7.826.934-3.585 3.72-5.486 7.362-5.919 3.347-.399 6.23 1.785 6.305 5.123.157 7.007 1.112 14.25-.283 20.977-1.894 9.136-5.76 17.827-14.599 22.928-.616.356-1.186.813-1.836 1.082-4.924 2.041-7.653 5.338-6.601 10.998.312 1.677-.366 2.622-2.339 2.616-2.002-.006-2.103-1.026-2.361-2.65-1.079-6.785 1.066-11.138 7.594-14.415 11.367-5.706 15.872-15.922 15.786-28.363-.025-3.659.022-7.319-.07-10.976-.021-.828-.337-2.236-.769-2.34-.838-.204-2.244.023-2.712.622-.865 1.107-1.655 2.591-1.714 3.951-.205 4.666-.013 9.35-.13 14.022-.028 1.12-.383 2.45-1.067 3.295-3.918 4.85-7.981 9.58-12.413 14.85z"/></g><g><path fill="#2c5432" d="M15.229 53.083c.832-1.195 1.195-1.753 1.595-2.284 3.234-4.295 8.837-4.255 11.777.242 3.448 5.273 6.682 10.684 10.034 16.019 1.027 1.633 2.064 3.269 3.225 4.806 4.434 5.871 3.73 12.684 3.392 19.355-.03.585-2.434 1.048-4.383 1.827 0-3.744-.033-6.556.008-9.367.057-3.927-1.4-7.199-3.626-10.421-3.982-5.763-7.578-11.792-11.335-17.711-.381-.601-.618-1.478-1.162-1.75-1.028-.515-2.23-.684-3.36-.997-.271 1.148-1.1 2.545-.716 3.402 1.859 4.164 4.043 8.184 6.26 12.545-1.267.72-2.44 1.387-3.018 1.717-4.457-5.235-8.67-10.108-12.763-15.078-.565-.687-.743-1.854-.76-2.805-.075-4.574.033-9.151-.077-13.724-.031-1.255-.265-2.765-1.003-3.67-.713-.872-2.2-1.113-3.345-1.632-.313.973-.838 1.934-.897 2.922-.14 2.331.114 4.69-.098 7.01-.75 8.172.696 15.825 5.42 22.616 1.7 2.444 3.836 4.623 5.989 6.699 1.218 1.175 2.866 1.908 4.334 2.82 8.154 5.065 8.123 5.061 7.482 14.646-.102 1.529-.573 2.193-2.155 2.193-1.594.001-2.784-.462-2.401-2.216 1.376-6.304-2.3-9.109-7.167-11.903C5.566 72.08 1.128 61.83.509 49.705c-.25-4.867-.103-9.759-.03-14.638.076-5.014 3.39-7.368 8.162-5.913 3.718 1.134 6.229 4.529 6.313 8.781.076 3.861-.017 7.726-.002 11.59.004.944.142 1.888.277 3.558z"/></g></g></svg>