<svg xmlns="http://www.w3.org/2000/svg" width="17" height="10" viewBox="0 0 17 10"><g><g><path fill="#fff" d="M15.946.233c.585 0 1.059.474 1.059 1.06v7.413c0 .585-.474 1.06-1.059 1.06H1.532a1.059 1.059 0 0 1-1.059-1.06V1.292C.473.707.947.233 1.532.233zm-5.004 4.768l5.177-3.229a.351.351 0 0 0 .111-.479.349.349 0 0 0-.479-.11L10.283 4.59l-.656.41-.886.552-.889-.552-.656-.41-5.468-3.409a.348.348 0 0 0-.368.59l5.177 3.23L1.36 8.23a.344.344 0 0 0 .184.64.333.333 0 0 0 .184-.053l5.468-3.406 1.344.837a.367.367 0 0 0 .184.052c.007 0 .01 0 .017-.004.004.004.011.004.014.004a.367.367 0 0 0 .184-.052l1.344-.837 5.468 3.406a.326.326 0 0 0 .184.052.345.345 0 0 0 .184-.639z"/></g></g></svg>