<svg xmlns="http://www.w3.org/2000/svg" width="28" height="28" viewBox="0 0 28 28"><g><g><path fill="#fff" d="M16.495 27.727c-.006-.083-.016-.166-.016-.248l-.002-8.909c0-.347-.002-.345.353-.344h2.612c.113 0 .216.013.24-.15.182-1.223.37-2.445.556-3.668.004-.03-.005-.065-.01-.124h-3.731c-.007-.106-.017-.187-.017-.268-.002-.709-.005-1.417-.001-2.125 0-.196.007-.394.035-.587.15-1.02.808-1.637 1.837-1.695a23.768 23.768 0 0 1 1.79-.022c.24.004.3-.07.298-.304a120.16 120.16 0 0 1-.003-2.816c.002-.18-.046-.254-.233-.278-1.346-.167-2.693-.362-4.05-.114-1.967.36-3.206 1.52-3.731 3.445-.234.86-.197 1.742-.202 2.62-.003.632.002 1.263.002 1.895 0 .074-.01.148-.016.243h-3.44c-.007.111-.017.201-.017.291 0 1.118.01 2.236-.003 3.354-.003.257.08.312.319.31.956-.013 1.912.003 2.867-.012.247-.004.297.078.297.306-.007 2.995-.005 5.99-.006 8.985 0 .074-.012.147-.02.221C6.719 27.054.737 21.935.702 14.318.666 6.69 6.934.566 14.477.628c7.602.06 14.015 6.492 13.492 14.56-.466 7.21-6.27 11.918-11.474 12.54z"/></g></g></svg>