<svg id="Layer_1" data-name="Layer 1" xmlns="http://www.w3.org/2000/svg" viewBox="0 0 38.81 39.83"><defs><style>.cls-1{fill:#fff;}</style></defs><path class="cls-1" d="M5.82,20.87V19l.12-.91A13.64,13.64,0,0,1,17,6.55c.47-.08.94-.14,1.41-.21h1.91a.73.73,0,0,0,.2,0A13.56,13.56,0,0,1,32.79,22.14,13.61,13.61,0,0,1,17.51,33.36a13,13,0,0,1-7-3.17A13.34,13.34,0,0,1,6,22.31C6,21.83,5.89,21.35,5.82,20.87Zm13.59-9.79v0c-.35,0-.69,0-1,0-1.19,0-2.39,0-3.56.17A4.35,4.35,0,0,0,11,14.37a6.09,6.09,0,0,0-.33,1.84c-.06,2.07-.06,4.15-.05,6.23a14.54,14.54,0,0,0,.14,2.08,4.55,4.55,0,0,0,2.44,3.54,5.91,5.91,0,0,0,2.61.6c1.47,0,3,.06,4.42.05A36.13,36.13,0,0,0,24,28.54a4.42,4.42,0,0,0,3.73-2.83,5.67,5.67,0,0,0,.41-2.12c0-2,.05-4.08.05-6.12A18.69,18.69,0,0,0,28,15.36a4.64,4.64,0,0,0-4.45-4.14C22.2,11.15,20.8,11.12,19.41,11.08Z"/><path class="cls-1" d="M19,12.67c1.64,0,2.89.05,4.14.1a3.35,3.35,0,0,1,2.63,1.15,3.41,3.41,0,0,1,.75,2.19c0,2.24.05,4.47.05,6.71a8.09,8.09,0,0,1-.18,1.76A3,3,0,0,1,23.66,27c-.94.08-1.9.11-2.85.11-1.72,0-3.45,0-5.17-.06A3.35,3.35,0,0,1,13,25.92a3.47,3.47,0,0,1-.76-2.19c0-2.24-.05-4.49-.05-6.73a8.48,8.48,0,0,1,.17-1.74,3,3,0,0,1,2.77-2.43C16.56,12.72,18,12.71,19,12.67Zm-4.13,7.26a4.51,4.51,0,1,0,4.49-4.52A4.5,4.5,0,0,0,14.89,19.93ZM25.14,15.2a1,1,0,1,0-1,1.06A1,1,0,0,0,25.14,15.2Z"/><path class="cls-1" d="M22.33,19.91A2.94,2.94,0,1,1,19.4,17,2.93,2.93,0,0,1,22.33,19.91Z"/></svg>