<svg id="Layer_1" data-name="Layer 1" xmlns="http://www.w3.org/2000/svg" viewBox="0 0 38.81 39.83"><defs><style>.cls-1{fill:#fff;}</style></defs><path class="cls-1" d="M32.18,11.46H6.63a1.88,1.88,0,0,0-1.88,1.88V26.49a1.88,1.88,0,0,0,1.88,1.88H32.18a1.88,1.88,0,0,0,1.88-1.88V13.34A1.88,1.88,0,0,0,32.18,11.46Zm.31,14.18a.64.64,0,0,1,.2.85.62.62,0,0,1-.53.29.53.53,0,0,1-.32-.1l-9.7-6-2.38,1.49a.68.68,0,0,1-.33.09h-.05a.68.68,0,0,1-.33-.09l-2.38-1.49-9.7,6a.55.55,0,0,1-.32.1.62.62,0,0,1-.53-.29.63.63,0,0,1,.2-.85l9.18-5.72L6.32,14.19a.63.63,0,0,1-.2-.85A.61.61,0,0,1,7,13.15l9.7,6,1.16.73,1.58,1,1.57-1,1.16-.73,9.7-6a.62.62,0,0,1,.85.19.64.64,0,0,1-.2.85l-9.18,5.73Z"/></svg>