<svg id="Layer_1" data-name="Layer 1" xmlns="http://www.w3.org/2000/svg" viewBox="0 0 38.81 39.83"><defs><style>.cls-1{fill:#fff;}</style></defs><path class="cls-1" d="M22.81,33.46a2,2,0,0,1,0-.25V24.3c0-.34,0-.34.35-.34h2.61c.12,0,.22,0,.24-.15.19-1.22.37-2.44.56-3.67,0,0,0-.06,0-.12H22.81c0-.11,0-.19,0-.27V17.63a3.81,3.81,0,0,1,0-.59,1.84,1.84,0,0,1,1.83-1.7c.6,0,1.2,0,1.79,0,.24,0,.3-.07.3-.3q0-1.41,0-2.82c0-.18-.05-.25-.24-.28a13.35,13.35,0,0,0-4-.11,4.45,4.45,0,0,0-3.74,3.45,10.46,10.46,0,0,0-.2,2.62v1.89c0,.07,0,.15,0,.24H15.08c0,.11,0,.2,0,.29,0,1.12,0,2.24,0,3.36,0,.25.08.31.32.31.95,0,1.91,0,2.86,0,.25,0,.3.07.3.3,0,3,0,6,0,9,0,.07,0,.14,0,.22a13.68,13.68,0,1,1,4.29,0Z"/></svg>