<svg id="Layer_1" data-name="Layer 1" xmlns="http://www.w3.org/2000/svg" viewBox="0 0 38.81 39.83"><defs><style>.cls-1{fill:#fff;}</style></defs><path class="cls-1" d="M28.84,35.81m-17-.22a2.31,2.31,0,0,1-1.72-2.25q0-13.5,0-27A2.33,2.33,0,0,1,12.43,4h1.15c4,0,8,0,12,0a2.83,2.83,0,0,1,1.11.23A2.16,2.16,0,0,1,28,6.39q0,13.47,0,27a.91.91,0,0,1,0,.17,2.23,2.23,0,0,1-1.64,2.06Zm0-17.44V28c0,.39,0,.39.39.39H25.88c.4,0,.4,0,.4-.41V8.31c0-.41,0-.41-.41-.41H12.21c-.41,0-.41,0-.41.43ZM19,6.54h3.12c.36,0,.49-.17.48-.59s-.11-.52-.46-.52H15.9a.49.49,0,0,0-.27.06.76.76,0,0,0-.14.77.45.45,0,0,0,.49.29Zm0,24A1.47,1.47,0,0,0,17.56,32a1.53,1.53,0,0,0,1.49,1.48,1.52,1.52,0,0,0,1.46-1.5A1.46,1.46,0,0,0,19,30.49Z"/></svg>