<svg xmlns="http://www.w3.org/2000/svg" width="28" height="28" viewBox="0 0 28 28"><g><g><path fill="#fff" d="M.275 13.226c.04-.305.074-.61.118-.914.384-2.63 1.42-4.97 3.165-6.979 2.11-2.43 4.75-3.949 7.926-4.515.467-.083.938-.14 1.408-.209H14.8c.067.017.134.044.203.05 2.036.164 3.927.78 5.695 1.801 4.823 2.784 7.497 8.471 6.544 13.95-.53 3.048-1.908 5.653-4.196 7.738-3.147 2.867-6.869 4.014-11.083 3.473-2.637-.339-4.972-1.419-6.98-3.167C2.57 22.352 1.058 19.725.486 16.57c-.086-.475-.142-.957-.21-1.435zM13.856 5.38c-.345 0-.69-.01-1.034.002-1.19.047-2.39.02-3.567.173-1.865.242-3.195 1.27-3.809 3.082a6.297 6.297 0 0 0-.329 1.84c-.052 2.073-.055 4.15-.048 6.225.002.695.041 1.397.142 2.084.23 1.57 1.015 2.785 2.442 3.535.813.428 1.701.582 2.607.604 1.474.035 2.95.066 4.424.05 1.252-.014 2.513-.017 3.752-.168 1.757-.213 3.034-1.168 3.73-2.83a5.688 5.688 0 0 0 .418-2.117c.033-2.04.048-4.08.042-6.12a17.35 17.35 0 0 0-.138-2.112c-.295-2.337-2.086-4.008-4.449-4.139-1.393-.077-2.788-.1-4.182-.147v.038z"/></g></g></svg>