<svg id="Layer_1" data-name="Layer 1" xmlns="http://www.w3.org/2000/svg" xmlns:xlink="http://www.w3.org/1999/xlink" viewBox="0 0 171.57 175.66"><defs><style>.cls-1,.cls-12,.cls-13,.cls-14,.cls-15,.cls-16,.cls-17,.cls-18,.cls-9{fill:none;}.cls-2,.cls-3{fill:#5b9e6b;}.cls-3{font-size:22.01px;font-family:BerlinSansFBDemi-Bold, Berlin Sans FB Demi;font-weight:700;}.cls-4{clip-path:url(#clip-path);}.cls-5{fill:#2c5432;}.cls-6{fill:#52805f;}.cls-7{clip-path:url(#clip-path-2);}.cls-8{fill:#396b42;}.cls-9{stroke:#5b9e6b;}.cls-12,.cls-13,.cls-14,.cls-15,.cls-16,.cls-17,.cls-18,.cls-9{stroke-linecap:round;stroke-miterlimit:10;}.cls-12,.cls-9{stroke-width:2.8px;}.cls-10{clip-path:url(#clip-path-3);}.cls-11{clip-path:url(#clip-path-4);}.cls-12,.cls-13,.cls-14,.cls-15,.cls-16,.cls-17,.cls-18{stroke:#2c5432;}.cls-13{stroke-width:2.98px;}.cls-14{stroke-width:3px;}.cls-15{stroke-width:3.02px;}.cls-16{stroke-width:3.04px;}.cls-17{stroke-width:3.06px;}.cls-18{stroke-width:3.08px;}.cls-19{clip-path:url(#clip-path-5);}.cls-20{clip-path:url(#clip-path-6);}.cls-21{clip-path:url(#clip-path-7);}</style><clipPath id="clip-path"><path class="cls-1" d="M93.43,10.82V38.5H93a35.45,35.45,0,1,0,0,70.9h.44v27.67a63.12,63.12,0,1,1,0-126.23Z"/></clipPath><clipPath id="clip-path-2"><path class="cls-1" d="M86.73,139.61a36.92,36.92,0,0,0,16.53-17,29.46,29.46,0,0,0,2.85-11.44c.39-6.21-3.33-7.77-8.78-6.45A44.59,44.59,0,0,0,77.86,115.6c-4.84,4.73-8.34,10.8-12,16.3A76.83,76.83,0,0,1,47.7,151.24a46,46,0,0,1-11.83,6.39l-.1,0A83.55,83.55,0,0,0,49.28,167c3.88-3.94,7.91-7.67,12.14-11.25C69.34,149.14,77.7,144.43,86.73,139.61Z"/></clipPath><clipPath id="clip-path-3"><path class="cls-2" d="M44.51,54.06C53.79,58,61.49,64.67,69,71.31,76.11,77.68,83.5,87,93.69,88c3.8.38,8.72-.14,8.48-5-.15-3.18-2.44-6.46-4.06-8.84a55.76,55.76,0,0,0-3.45-4.64A65.12,65.12,0,0,0,69,50.81c-13.52-5.34-33.1-7.25-45.66-7.93a84,84,0,0,0-4.78,7C27.49,49.52,36.36,50.61,44.51,54.06Z"/></clipPath><clipPath id="clip-path-4"><path class="cls-1" d="M43.73,94.12c3.37.64,13.05,1,16.24,3,3.4,2.15,8.89,1.72,12.73,1.58,4-.15,9-.37,12.76-1.86,2.47-1,5-2,7.13-3L92,93.73A27,27,0,0,1,84.42,91,41.07,41.07,0,0,1,78,86.76c-13.72-11.28-24-26.23-42.1-30.65A69.25,69.25,0,0,0,16,54.39q-1.8,3.39-3.29,6.94c8.86,2.17-8.47,18.94-.33,23C19.73,88.07,29.1,91.33,43.73,94.12Z"/></clipPath><clipPath id="clip-path-5"><path class="cls-1" d="M90.55,55.4a.94.94,0,0,0,1.62-.76c-.46-3.57-.63-4.68-.9-7.25a131.32,131.32,0,0,1-.78-15.1,105.41,105.41,0,0,1,2.35-22c-1.2-.05-2.4-.08-3.6-.08a82.59,82.59,0,0,0-22.37,3.07C69.72,29.83,79.55,43.46,87.5,52.1,88.55,53.24,89.54,54.27,90.55,55.4Z"/></clipPath><clipPath id="clip-path-6"><path class="cls-1" d="M33.51,120.18h0c-5.39-1.66-11.26-1.06-16.62.66A48.5,48.5,0,0,0,11.46,123a83.46,83.46,0,0,0,6.93,14.33A36.25,36.25,0,0,0,33.51,120.18Z"/></clipPath><clipPath id="clip-path-7"><path class="cls-1" d="M115.78,157a144.11,144.11,0,0,1-6.36-13.66,64.51,64.51,0,0,1-2.51-7.42,40.93,40.93,0,0,1-.76-4.29.05.05,0,0,0-.1,0,36.62,36.62,0,0,1-3.11,4.19c-2.54,2.91-6.4,5.48-8.46,8.83s-2.66,7.51-3,11.37A62.18,62.18,0,0,0,92,170.32c.08.54.82,3.8,1.6,6.9a82.27,82.27,0,0,0,29.67-7.2c0-.06-.07-.1-.08-.1C120.51,165.64,118.09,161.37,115.78,157Z"/></clipPath></defs><text class="cls-3" transform="translate(20.63 164.89)">Complex Agro</text><path class="cls-2" d="M93,54.49h.44V93.38H93a19.45,19.45,0,1,1,0-38.9Z"/><path class="cls-2" d="M128.41,72.77a35.42,35.42,0,0,0-35-34.27v16a19.44,19.44,0,0,1,0,38.88v16a35.24,35.24,0,0,0,20-6.47v4.18a2.08,2.08,0,0,0,2.07,2.08h10.93a2.08,2.08,0,0,0,2.07-2.08V73.31A1.91,1.91,0,0,0,128.41,72.77Z"/><g class="cls-4"><path class="cls-2" d="M93.43,10.82V38.5H93a35.45,35.45,0,1,0,0,70.9h.44v27.67a63.12,63.12,0,1,1,0-126.23Z"/><path class="cls-2" d="M44.8,147.38a71.22,71.22,0,0,0,16.08-18.66c1.93-3.18,3.93-5.88,6.42-10.58h0c-6.69,1.22-13-2.8-19.73-1.67-6.48,1.08-11.2,6.44-14.83,12-3.22,4.88-7,10.14-12.37,12a83.24,83.24,0,0,0,11.78,14c.76-.23,1.52-.49,2.26-.79A41.86,41.86,0,0,0,44.8,147.38Z"/><path class="cls-5" d="M86.32,56.37c-.53-.61-1-1.18-1.55-1.73-8.22-8.94-18.39-23-21.49-40.31a83.12,83.12,0,0,0-37,24.94c12.75.81,30.94,2.85,44.1,8A61.53,61.53,0,0,1,86.32,56.37Z"/><path class="cls-5" d="M32.78,116.21c3.52,1,4.91-.28,7.87-2.06,9.55-5.75,21.68,3.16,31.36-3a32.08,32.08,0,0,0,5.53-4.89c.89-.91,2.14-2.72,3.5-2.92h0a66.2,66.2,0,0,1-16.1.19c-14.54-1.6-28.13-8-42.44-11-5.44-1.17-11.43-1.76-16.26,1v.2a84,84,0,0,0,4,25.67A51.4,51.4,0,0,1,16.45,117C21.61,115.47,27.5,114.73,32.78,116.21Z"/><path class="cls-6" d="M112.52,39c3.14,9.42,7.93,16.86,6.17,27.25-.45,2.61-1.08,7.63.61,10,2.1,3,7.26,1.65,10.33,1.44,5.46-.37,10.45-1.44,16-1,9.6.84,13.27-5.46,20-10.94a6.77,6.77,0,0,1,1.53-1,83.43,83.43,0,0,0-55.7-51.59C110.14,21.83,109.7,30.51,112.52,39Z"/><path class="cls-6" d="M96.39,55.17c.66,4.9,6,16.87,12.72,12.36,2.58-1.72,2.19-6.62,1.68-9.22a62.75,62.75,0,0,0-2.53-8.1,70.08,70.08,0,0,1-3.54-18,86.9,86.9,0,0,1,1.12-20.42,84.74,84.74,0,0,0-9.21-1.34C93.47,25.09,94.39,40.48,96.39,55.17Z"/><path class="cls-6" d="M126.55,108c-8.59,3-13.68,10.6-13.61,19.69s4.72,18.13,8.76,26.14c1.79,3.51,4.72,9.23,7.06,13.4a83.65,83.65,0,0,0,41.51-55.37c-2.44-.35-4.89-.91-6-1C150.39,109.77,140.72,103.16,126.55,108Z"/><path class="cls-5" d="M88.86,147.74A1.31,1.31,0,0,0,87,146.31,100,100,0,0,0,64.65,159.8c-3.77,3-7.45,6.17-11,9.48a82.16,82.16,0,0,0,35.57,8.05h.26C86.94,167.82,87.15,157.56,88.86,147.74Z"/><g class="cls-7"><path class="cls-8" d="M86.73,139.61a36.92,36.92,0,0,0,16.53-17,29.46,29.46,0,0,0,2.85-11.44c.39-6.21-3.33-7.77-8.78-6.45A44.59,44.59,0,0,0,77.86,115.6c-4.84,4.73-8.34,10.8-12,16.3A76.83,76.83,0,0,1,47.7,151.24a46,46,0,0,1-11.83,6.39l-.1,0A83.55,83.55,0,0,0,49.28,167c3.88-3.94,7.91-7.67,12.14-11.25C69.34,149.14,77.7,144.43,86.73,139.61Z"/><path class="cls-9" d="M68.16,129.93s22.31,13.86,48.42-9.56"/><path class="cls-9" d="M68.16,122s22.31,13.87,48.42-9.56"/><path class="cls-9" d="M68.16,114s22.31,13.86,48.42-9.56"/><path class="cls-9" d="M68.16,106s22.31,13.86,48.42-9.56"/><path class="cls-9" d="M52,171.88a70.44,70.44,0,0,1-12.52-45.3"/><path class="cls-9" d="M59.15,169.34a60.37,60.37,0,0,1-10.84-41.15"/><path class="cls-9" d="M66.29,166.8a50.87,50.87,0,0,1-9.17-37"/><path class="cls-9" d="M73.44,164.26c-.35-.69-11-12.93-7.5-32.87"/><path class="cls-9" d="M80.58,161.72c-.17-.34-9.92-11.2-5.83-28.73"/><path class="cls-9" d="M87.72,159.18s-8.85-9.48-4.15-24.58"/></g><path class="cls-2" d="M44.51,54.06C53.79,58,61.49,64.67,69,71.31,76.11,77.68,83.5,87,93.69,88c3.8.38,8.72-.14,8.48-5-.15-3.18-2.44-6.46-4.06-8.84a55.76,55.76,0,0,0-3.45-4.64A65.12,65.12,0,0,0,69,50.81c-13.52-5.34-33.1-7.25-45.66-7.93a84,84,0,0,0-4.78,7C27.49,49.52,36.36,50.61,44.51,54.06Z"/><g class="cls-10"><path class="cls-2" d="M44.51,54.06C53.79,58,61.49,64.67,69,71.31,76.11,77.68,83.5,87,93.69,88c3.8.38,8.72-.14,8.48-5-.15-3.18-2.44-6.46-4.06-8.84a55.76,55.76,0,0,0-3.45-4.64A65.12,65.12,0,0,0,69,50.81c-13.52-5.34-33.1-7.25-45.66-7.93a84,84,0,0,0-4.78,7C27.49,49.52,36.36,50.61,44.51,54.06Z"/></g><g class="cls-11"><path class="cls-2" d="M45.13,108.75C46.14,112,56.78,95.11,60,97.11c3.4,2.15,8.89,1.72,12.73,1.58,4-.15,9-.37,12.76-1.86,2.47-1,5-2,7.13-3L92,93.73A27,27,0,0,1,84.42,91,41.07,41.07,0,0,1,78,86.76c-13.72-11.28-24-26.23-42.1-30.65A69.25,69.25,0,0,0,16,54.39q-1.8,3.39-3.29,6.94c8.86,2.17-30.77,43.32-22.63,47.42C-2.57,112.46,42.68,100.85,45.13,108.75Z"/><path class="cls-12" d="M57,60.52S45.76,85.31,72.92,109.21"/><path class="cls-12" d="M65.1,59.5S53.86,84.28,81,108.19"/><path class="cls-12" d="M73.2,58.48S62,83.26,89.12,107.17"/><path class="cls-12" d="M81.31,57.45S70.07,82.24,97.22,106.14"/><path class="cls-13" d="M13.74,71.51c1.88-1,13.92-15,43.55-12.83"/><path class="cls-14" d="M16.05,80.15c1.46-.84,12.34-15.3,39.57-15.11"/><path class="cls-15" d="M17.37,90.17c1-.72,10.37-15.78,35-17.92"/><path class="cls-16" d="M22.93,97.41c.7-.48,9.69-15.3,31.85-17.55"/><path class="cls-17" d="M28.5,104.65A40.76,40.76,0,0,1,57.17,87.48"/><path class="cls-18" d="M34.07,111.89s8.33-14.34,25.49-16.8"/></g><g class="cls-19"><path class="cls-8" d="M90.55,55.4a.94.94,0,0,0,1.62-.76c-.46-3.57-.63-4.68-.9-7.25a131.32,131.32,0,0,1-.78-15.1,105.41,105.41,0,0,1,2.35-22c-1.2-.05-2.4-.08-3.6-.08a82.59,82.59,0,0,0-22.37,3.07C69.72,29.83,79.55,43.46,87.5,52.1,88.55,53.24,89.54,54.27,90.55,55.4Z"/><path class="cls-9" d="M88.36,9.89s-18.25,19-1.16,49.67"/><path class="cls-9" d="M96.08,11.6s-18.25,19-1.16,49.68"/><path class="cls-9" d="M103.81,13.32s-18.25,19-1.16,49.67"/><path class="cls-9" d="M111.54,15s-18.25,19-1.17,49.67"/><path class="cls-9" d="M78.09,31.37A69.34,69.34,0,0,1,35,13.19"/><path class="cls-9" d="M80.54,24.15A59.46,59.46,0,0,1,41.75,7.22"/><path class="cls-9" d="M83,16.93c-1.13-.22-18.88.44-34.53-15.69"/><path class="cls-9" d="M85.44,9.71c-.75-.15-16.88.67-30.27-14.44"/><path class="cls-9" d="M87.88,2.49c-.37-.07-14.87.9-26-13.2"/></g><g class="cls-20"><path class="cls-2" d="M33.51,120.18h0c-5.39-1.66-11.26-1.06-16.62.66A48.5,48.5,0,0,0,11.46,123a83.46,83.46,0,0,0,6.93,14.33A36.25,36.25,0,0,0,33.51,120.18Z"/><path class="cls-12" d="M15.45,97.9S5.16,123.09,33.2,146"/><path class="cls-12" d="M23.51,96.57s-10.29,25.19,17.75,48.05"/><path class="cls-12" d="M31.56,95.24s-10.29,25.19,17.76,48.05"/><path class="cls-12" d="M39.62,93.91S29.33,119.1,57.37,142"/><path class="cls-12" d="M-29.66,88.34a71.71,71.71,0,0,1,43.71-20.4"/><path class="cls-12" d="M-25.9,95.24a61.39,61.39,0,0,1,39.8-18"/><path class="cls-12" d="M-22.14,102.14A51.65,51.65,0,0,1,13.75,86.56"/><path class="cls-12" d="M-18.38,109c.64-.47,11.24-13.42,32-13.18"/><path class="cls-12" d="M-14.62,115.94c.32-.24,9.67-12,28.08-10.77"/><path class="cls-12" d="M-10.86,122.84s8.11-10.66,24.17-8.37"/></g><g class="cls-21"><path class="cls-2" d="M115.78,157a144.11,144.11,0,0,1-6.36-13.66,64.51,64.51,0,0,1-2.51-7.42,40.93,40.93,0,0,1-.76-4.29.05.05,0,0,0-.1,0,36.62,36.62,0,0,1-3.11,4.19c-2.54,2.91-6.4,5.48-8.46,8.83s-2.66,7.51-3,11.37A62.18,62.18,0,0,0,92,170.32c.08.54.82,3.8,1.6,6.9a82.27,82.27,0,0,0,29.67-7.2c0-.06-.07-.1-.08-.1C120.51,165.64,118.09,161.37,115.78,157Z"/><path class="cls-12" d="M72.58,169.45a60.42,60.42,0,0,1,30-27.3"/><path class="cls-12" d="M77.3,174a51.77,51.77,0,0,1,27.42-24.39"/><path class="cls-12" d="M82,178.61a43.54,43.54,0,0,1,24.88-21.48"/><path class="cls-12" d="M86.73,183.19a35.81,35.81,0,0,1,22.35-18.57"/><path class="cls-12" d="M91.45,187.77c.2-.26,4.77-12.06,19.82-15.66"/><path class="cls-12" d="M112.86,172.51a70.18,70.18,0,0,1-6.27-46.35"/><path class="cls-12" d="M120.25,171a60.14,60.14,0,0,1-5.19-42"/><path class="cls-12" d="M127.63,169.45a50.63,50.63,0,0,1-4.09-37.74"/><path class="cls-12" d="M135,167.92c-.25-.73-9.1-14.24-3-33.43"/><path class="cls-12" d="M142.39,166.38c-.12-.36-8.27-12.39-1.89-29.11"/><path class="cls-12" d="M149.78,164.85S142.32,154.3,149,140"/></g><path class="cls-1" d="M93.42,137.05a63.11,63.11,0,0,1,0-126.22Z"/></g></svg>