<svg xmlns="http://www.w3.org/2000/svg" width="13" height="18" viewBox="0 0 13 18"><g><g><path fill="#fff" d="M12.508 5.006c.268 1.402.063 2.738-.628 3.99-1.585 2.876-3.175 5.747-4.762 8.62-.085.154-.181.28-.377.28s-.292-.126-.377-.28c-1.587-2.873-3.177-5.744-4.763-8.618-.596-1.08-.849-2.241-.705-3.464.22-1.875 1.134-3.34 2.724-4.366A5.675 5.675 0 0 1 6.196.29c.033-.003.065-.018.097-.027h.896c.397.079.801.132 1.19.242 1.195.336 2.175 1.009 2.953 1.972a5.69 5.69 0 0 1 1.176 2.53zm-5.769 3.36a2.202 2.202 0 1 0 0-4.404 2.202 2.202 0 0 0 0 4.405z"/></g></g></svg>