<svg xmlns="http://www.w3.org/2000/svg" width="103" height="99" viewBox="0 0 103 99"><g><g><path fill="#2c5432" d="M63.422 93.726c.06.35.152.692.214 1.04.277 1.58.375 3.237-1.672 3.53-1.87.267-2.283-1.286-2.54-2.746-.767-4.357-1.52-8.716-2.281-13.073-.167-.96-.454-1.913-.492-2.877-.1-2.536-1.265-3.513-4.181-2.63v3.967c0 4.78-.007 9.561.002 14.341.003 1.54-.272 3.024-2.139 3.038-1.869.013-2.171-1.454-2.168-3.005.011-5.135.003-10.269.002-15.403v-2.803c-3.538-.814-3.624-.765-4.183 2.44-.927 5.313-1.838 10.63-2.768 15.943-.255 1.456-.67 3.01-2.518 2.81-2.033-.218-2.071-1.788-1.774-3.433 1.067-5.913 2.102-11.832 3.16-17.81-2.407-.938-3.668-.334-4.442 2.083a337.895 337.895 0 0 1-5.859 16.775c-.377.996-1.777 2.333-2.623 2.278-2.01-.133-2.046-1.798-1.474-3.42 1.851-5.26 3.706-10.516 5.547-15.778.226-.648.371-1.324.558-2.003-2.071-.78-3.223-.154-4.154 1.691-2.868 5.688-5.89 11.298-8.854 16.938-.247.47-.388 1.137-.779 1.362-.889.51-1.903.801-2.865 1.181-.287-1.053-1.055-2.27-.764-3.127.692-2.03 1.887-3.892 3.121-6.293H5.812c-.885 0-1.771.02-2.655-.017-1.476-.06-2.903-.624-2.55-2.256.175-.807 1.651-1.839 2.584-1.887 4.061-.208 8.161-.35 12.205-.013 3.447.287 5.499-.84 6.563-4.093.376-1.15 1.082-2.194 1.781-3.568-.906-.1-1.551-.23-2.195-.232-5.134-.017-10.275.136-15.4-.083-1.972-.085-5.54 1.508-5.452-2.1.084-3.417 3.596-1.988 5.606-2.007 12.923-.127 25.848-.049 38.772-.073 4.776-.009 4.15.547 4.202-4.285.009-.858.001-1.716.001-2.11-4.485 0-8.629.218-12.742-.046-7.949-.512-13.838-4.438-17.65-11.443-2.716-4.99-4.03-10.393-4.309-16.01-.047-.958 1.048-2.614 1.933-2.876 6.906-2.042 13.908-2.614 20.9-.302 3.982 1.316 7.224 3.687 9.722 7.066.51.691 1.036 1.37 2.07 2.733 0-3.383.048-5.98-.039-8.575-.018-.53-.467-1.108-.847-1.553-.63-.739-1.388-1.365-2.052-2.077C34.657 20.498 39.377 8.92 49.911.38c.692-.56 2.67-.444 3.44.15 3.908 3.01 6.942 6.798 8.786 11.438 1.717 4.323 1.769 8.704-.25 12.887-1.179 2.443-2.431 5.231-4.469 6.8-4.604 3.544-4.211 8.086-3.722 13.152.42-.384.778-.598.978-.912 4.156-6.522 10.32-9.677 17.825-9.836 4.371-.093 8.77.763 13.144 1.297 2.119.26 2.925 1.52 2.695 3.74-.591 5.698-1.891 11.158-4.781 16.16-4.798 8.303-12.387 11.18-21.512 10.915-2.719-.079-5.429-.463-8.454-.735 0 1.964-.215 3.84.12 5.611.112.594 1.623 1.31 2.498 1.316 13.809.082 27.618.058 41.428.06.708 0 1.538-.23 2.097.06.964.501 2.355 1.221 2.499 2.038.286 1.625-1.084 2.154-2.613 2.15-6.373-.018-12.747-.006-19.12-.005h-3.706c1.355 2.62 2.453 4.991 3.82 7.194.313.506 1.554.596 2.37.603 5.577.051 11.156-.059 16.728.12.91.03 2.392 1.116 2.546 1.918.312 1.624-1.115 2.173-2.594 2.228-.53.02-1.062.012-1.593.013H83.175c1.091 2.174 1.949 3.943 2.862 5.684.715 1.367 1.189 2.768-.509 3.653-1.693.882-2.595-.315-3.306-1.667-3.129-5.953-6.32-11.874-9.361-17.87-.896-1.768-2.001-2.296-4.147-1.506 1.149 3.318 2.29 6.623 3.439 9.926.843 2.423 1.682 4.85 2.553 7.262.566 1.57 1.175 3.278-.969 3.99-1.978.656-2.549-1.016-3.06-2.472-1.934-5.509-3.979-10.983-5.731-16.55-.772-2.455-2.032-3.026-4.405-2.193.963 5.592 1.92 11.16 2.881 16.727zm-25.569-38.38c-2.952-2.11-5.898-4.229-8.858-6.328-1.193-.845-2.095-1.869-1.13-3.31 1.064-1.589 2.406-1.052 3.669-.128.714.523 1.435 1.037 2.157 1.55l14.583 10.34c.102-9.472-7.342-18.128-16.494-18.988-3.653-.343-7.396.251-11.095.452-1.293.07-2.038.736-1.587 2.088 1.444 4.335 2.37 8.971 4.558 12.9 3.846 6.902 14.368 10.04 22.049 7.043l-7.852-5.619zm19.216.392c4.689-3.332 9.377-6.667 14.055-10.016 1.317-.942 2.715-1.739 3.873.016 1.063 1.611-.153 2.583-1.374 3.45a5948.974 5948.974 0 0 0-14.271 10.167c-.686.49-1.346 1.018-2.246 1.702.702.288 1.01.498 1.337.537 14.391 1.691 20.445-3.86 23.771-13.89.444-1.342.79-2.722 1.089-4.104.945-4.362.928-4.366-3.54-5.065-14.146-2.212-23.737 4.777-25.4 19.015 1.13-.755 1.932-1.263 2.706-1.812zm-7.867-28.51c-.004-3.364-.147-6.737.075-10.086.062-.94 1.056-2.4 1.863-2.588 1.67-.385 2.176 1.08 2.252 2.535.047.883.03 1.77.03 2.655.003 3.045.002 6.09.002 9.462 8.18-6.245 7.068-17.765-1.884-24.453-9.098 6.594-10.357 17.717-2.338 24.485v-2.01z"/></g></g></svg>