<svg xmlns="http://www.w3.org/2000/svg" width="28" height="28" viewBox="0 0 28 28"><g><g><path fill="#fff" d="M13.813.627c7.485 0 13.553 6.068 13.553 13.553 0 7.486-6.068 13.554-13.553 13.554C6.327 27.734.259 21.666.259 14.18.259 6.695 6.327.627 13.813.627zM8.912 22.324c.204.002.265-.055.265-.263-.006-3.443-.004-6.887-.005-10.331 0-.09-.007-.178-.012-.28H5.7v10.869h.313c.966 0 1.932-.005 2.899.005zM7.546 9.792C8.633 9.79 9.44 9.018 9.43 7.937c-.011-1.083-.674-1.887-1.861-1.9-1.097-.013-1.887.782-1.886 1.88 0 1.089.782 1.875 1.863 1.875zm14.393 12.226c0-1.924.01-3.848-.008-5.772a11.232 11.232 0 0 0-.157-1.841c-.165-.92-.568-1.74-1.304-2.348-.872-.721-1.888-.94-3.003-.838-.98.09-1.745.536-2.36 1.279-.111.136-.215.28-.361.47v-1.515H11.3v10.85h3.45v-.284-5.871c-.001-.625.167-1.184.618-1.638.856-.863 2.552-.76 2.927.704.096.378.143.778.146 1.169.016 1.883.009 3.765.01 5.648 0 .087.008.175.013.275h3.474z"/></g></g></svg>