<svg xmlns="http://www.w3.org/2000/svg" width="12" height="19" viewBox="0 0 11 19"><g><g><path fill="#fff" d="M1.419 18.192c-.573-.116-.966-.706-.965-1.27.006-5.074.006-10.146 0-15.219 0-.716.57-1.312 1.316-1.317.217-.002.433 0 .65 0 2.247 0 4.494-.004 6.74.005.208.001.433.044.622.128.51.227.756.645.756 1.201v15.302a1.263 1.263 0 0 1-.93 1.162zm-.006-4.284c0 .216.001.216.221.216h7.723c.225 0 .226 0 .226-.228V2.806c0-.23-.001-.23-.23-.23H1.648c-.233 0-.234 0-.234.241V13.908zM7.25 1.81c.2 0 .273-.095.27-.332-.002-.22-.066-.296-.263-.296a1381.41 1381.41 0 0 0-3.526.001.293.293 0 0 0-.156.036c-.096.064-.133.296-.08.433.05.128.146.162.278.161.571-.005 1.142-.002 1.713-.002H7.25zM4.667 16.14c.014.453.388.837.838.835.448-.003.816-.39.824-.847.008-.422-.401-.853-.828-.813-.448-.042-.848.414-.835.825z"/></g></g></svg>